<svg width="303" height="334" viewBox="0 0 303 334" fill="none" xmlns="http://www.w3.org/2000/svg">
<g opacity="0.3">
<path d="M151.5 333.954C235.171 333.954 303 298.168 303 254.024C303 209.879 235.171 174.093 151.5 174.093C67.8289 174.093 0 209.879 0 254.024C0 298.168 67.8289 333.954 151.5 333.954Z" fill="#002537"/>
</g>
<g opacity="0.2">
<path d="M131.966 250.584C148.163 250.584 161.292 242.99 161.292 233.623C161.292 224.256 148.163 216.662 131.966 216.662C115.77 216.662 102.641 224.256 102.641 233.623C102.641 242.99 115.77 250.584 131.966 250.584Z" fill="#001926"/>
<path d="M227.861 287.98C250.423 287.98 268.713 277.736 268.713 265.099C268.713 252.462 250.423 242.218 227.861 242.218C205.3 242.218 187.01 252.462 187.01 265.099C187.01 277.736 205.3 287.98 227.861 287.98Z" fill="#001926"/>
</g>
<path d="M223.315 260.377L216.16 259.58L214.31 245.592L223.054 248.11L223.315 260.377Z" fill="#D09092"/>
<path d="M207.638 271.788C207.534 272.064 207.492 272.357 207.513 272.65C207.534 272.942 207.619 273.227 207.761 273.486C208.528 274.35 210.509 275.363 213.212 275.55C215.799 275.728 218.102 275.393 219.614 274.462C220.272 274.132 220.835 273.649 221.253 273.057C221.671 272.464 221.931 271.78 222.01 271.066C222.156 269.643 222.01 268.265 222.693 267.17C223.376 266.075 224.367 265.01 224.589 264.459C224.855 263.508 224.855 262.505 224.589 261.554L207.638 271.788Z" fill="#263238"/>
<path d="M214.709 259.335C214.686 259.874 214.585 260.408 214.409 260.921C214.014 262.024 213.483 263.077 212.828 264.057C212.506 264.577 212.147 265.075 211.753 265.546C210.985 266.448 210.002 267.193 209.173 268.057C208.294 268.871 207.73 269.955 207.576 271.125C207.469 273.092 210.693 273.762 212.39 274.052C214.22 274.363 216.099 274.271 217.887 273.784C218.826 273.547 219.675 273.052 220.332 272.358C220.988 271.665 221.424 270.802 221.588 269.874C221.688 269.323 221.649 268.764 221.718 268.22C221.942 266.965 222.482 265.782 223.292 264.779C223.762 264.2 224.167 263.573 224.497 262.91C225.027 261.696 224.605 260.325 224.267 259.119C223.975 258.068 223.622 256.884 223.238 256.966C223.238 257.51 223.238 257.584 222.862 257.949C222.486 258.314 222.34 259.119 221.803 259.528C221.974 259.074 222.1 258.605 222.179 258.128C222.212 257.937 222.171 257.74 222.064 257.577C221.886 257.422 221.673 257.31 221.442 257.249C220.643 256.99 219.82 256.808 218.985 256.705C217.845 256.579 216.693 256.579 215.553 256.705C215.316 256.746 215.101 256.868 214.947 257.048C214.809 257.246 214.734 257.479 214.732 257.718C214.693 258.001 214.724 258.813 214.709 259.335Z" fill="#34647A"/>
<path d="M212.551 264.474C213.319 263.923 216.029 263.915 216.95 264.012C217.889 264.09 218.793 264.397 219.576 264.906C219.691 264.985 219.831 265.022 219.971 265.012C220.111 265.001 220.243 264.942 220.344 264.846C220.402 264.79 220.447 264.723 220.476 264.648C220.504 264.574 220.516 264.495 220.511 264.415C220.505 264.336 220.481 264.259 220.442 264.189C220.402 264.12 220.348 264.059 220.282 264.012C219.422 263.396 218.4 263.027 217.334 262.947C216.004 262.852 214.667 262.927 213.357 263.17C213.357 263.17 212.328 263.818 212.551 264.474Z" fill="#F5F5F5"/>
<path d="M210.816 266.515C211.768 265.971 214.655 266.045 215.584 266.142C216.504 266.234 217.384 266.56 218.133 267.088C218.248 267.166 218.387 267.203 218.527 267.192C218.667 267.181 218.799 267.123 218.9 267.029C218.958 266.973 219.003 266.905 219.032 266.831C219.061 266.757 219.073 266.677 219.067 266.598C219.061 266.519 219.038 266.442 218.998 266.372C218.959 266.302 218.905 266.242 218.839 266.194C217.58 265.561 216.205 265.172 214.793 265.047C212.49 264.891 211.929 265.338 211.929 265.338C211.665 265.441 211.428 265.6 211.235 265.804C211.043 266.008 210.899 266.25 210.816 266.515Z" fill="#F5F5F5"/>
<path d="M218.24 260.839C216.941 260.695 215.626 260.773 214.355 261.07C213.956 261.286 213.687 261.904 213.948 262.06C215.108 261.757 216.312 261.641 217.511 261.718C218.362 261.8 219.192 262.022 219.967 262.373C220.167 262.462 220.397 262.574 220.597 262.686C220.661 262.725 220.733 262.751 220.809 262.761C220.884 262.771 220.961 262.766 221.034 262.745C221.106 262.723 221.174 262.687 221.231 262.638C221.288 262.59 221.334 262.53 221.365 262.462C221.419 262.353 221.43 262.227 221.395 262.11C221.359 261.993 221.28 261.893 221.173 261.829C220.279 261.3 219.279 260.962 218.24 260.839Z" fill="#F5F5F5"/>
<path d="M196.636 254.016L189.834 252.176V238.836L198.271 239.194L196.636 254.016Z" fill="#D09092"/>
<path d="M175.461 261.159C175.27 261.734 175.305 262.358 175.561 262.909C175.815 263.416 178.571 264.928 182.287 264.682C185.039 264.491 187.689 263.591 189.964 262.075C191.377 261.167 192.851 260.995 194.693 260.898C196.536 260.802 198.947 259.9 199.354 259.066C199.561 258.319 199.539 257.53 199.292 256.794L175.461 261.159Z" fill="#263238"/>
<path d="M190.433 249.912L190.141 249.853C189.979 249.815 189.811 249.815 189.65 249.853C189.471 249.909 189.312 250.012 189.189 250.15C188.826 250.604 188.51 251.09 188.245 251.603C187.477 252.832 185.826 253.837 184.045 254.783C182.832 255.416 181.642 255.908 180.391 256.452C179.139 256.995 177.412 257.353 176.414 258.008C174.955 258.962 174.763 261.353 176.414 262.299C177.842 263.118 181.619 264.004 185.573 262.917C187.723 262.321 190.118 260.094 192.943 259.878C194.74 259.736 198.141 259.252 199.3 257.926C199.73 257.338 199.154 255.476 198.686 253.867C198.172 252.109 197.688 249.398 197.089 249.525C197.094 249.65 197.068 249.776 197.014 249.89C196.959 250.004 196.877 250.103 196.774 250.18C196.552 250.404 196.252 250.545 196.007 250.746C195.587 251.146 195.249 251.619 195.008 252.139C194.911 252.371 194.731 252.561 194.502 252.675C194.195 252.78 193.972 252.601 193.734 252.482C193.397 252.332 193.015 252.305 192.659 252.407C192.696 252.058 192.761 251.712 192.851 251.372C192.885 251.265 192.885 251.151 192.851 251.044C192.808 250.936 192.726 250.846 192.621 250.791C191.963 250.353 191.217 250.053 190.433 249.912Z" fill="#34647A"/>
<path d="M185.75 253.808C185.878 253.567 186.067 253.361 186.299 253.21C186.531 253.059 186.799 252.967 187.078 252.944C187.892 252.795 189.335 253.383 190.233 254.098C190.319 254.165 190.386 254.25 190.43 254.348C190.473 254.446 190.491 254.552 190.482 254.658C190.473 254.764 190.437 254.866 190.378 254.956C190.318 255.045 190.237 255.119 190.141 255.171C190.02 255.237 189.881 255.265 189.744 255.25C189.606 255.235 189.476 255.179 189.373 255.089C188.382 254.222 187.083 253.763 185.75 253.808Z" fill="#F5F5F5"/>
<path d="M183.208 255.186C183.386 254.941 183.622 254.742 183.896 254.605C184.17 254.467 184.474 254.396 184.782 254.396C186.044 254.45 187.257 254.89 188.244 255.655C188.325 255.72 188.389 255.803 188.429 255.898C188.47 255.992 188.486 256.094 188.477 256.196C188.468 256.297 188.434 256.395 188.377 256.482C188.321 256.568 188.243 256.639 188.152 256.69C188.033 256.76 187.893 256.79 187.754 256.775C187.615 256.76 187.486 256.701 187.385 256.608C186.841 256.084 186.185 255.685 185.462 255.439C184.74 255.193 183.969 255.106 183.208 255.186Z" fill="#F5F5F5"/>
<path d="M180.452 256.423C180.654 256.198 180.905 256.018 181.186 255.896C181.467 255.774 181.771 255.712 182.079 255.715C183.295 255.788 184.455 256.231 185.396 256.981C185.477 257.047 185.54 257.131 185.581 257.226C185.621 257.321 185.637 257.424 185.628 257.526C185.619 257.628 185.585 257.726 185.529 257.813C185.472 257.9 185.395 257.972 185.304 258.024C185.184 258.094 185.044 258.123 184.906 258.109C184.767 258.094 184.637 258.035 184.536 257.942C184.023 257.399 183.387 256.98 182.678 256.716C181.969 256.453 181.207 256.352 180.452 256.423Z" fill="#F5F5F5"/>
<path d="M221.748 166.983C222.217 180.74 222.247 210.533 222.247 210.533C222.393 212.246 222.547 215.285 222.677 221.452C222.869 230.39 223.315 252.459 223.315 252.459C223.315 252.459 218.915 254.463 214.869 252.832C214.869 252.832 209.25 221.802 208.098 212.954C207.092 205.23 205.165 187.115 205.165 187.115L202.509 210.108C202.509 210.108 202.509 216.067 202.148 221.326C201.848 225.422 197.749 246.523 197.749 246.523C195.071 247.213 192.243 247.123 189.618 246.262C189.618 246.262 189.25 213.87 189.173 210.108C189.089 205.833 190.225 159.609 190.225 159.609L221.748 166.983Z" fill="#34647A"/>
<path d="M205.181 187.115L204.167 179.317C200.895 178.505 197.8 177.127 195.031 175.25C195.031 175.25 196.981 177.782 202.709 180.464L203.999 187.54L202.54 210.108L205.181 187.115Z" fill="#37474F"/>
<path d="M189.864 128.378C187.792 131.015 177.128 145.211 177.128 145.211L167.277 137.808C164.974 136.057 164.291 133.763 162.848 132.177C161.404 130.59 159.823 130.21 158.203 128.885C156.583 127.559 155.961 126.553 155.408 127.685C154.855 128.818 156.644 130.791 156.944 131.268C157.243 131.745 159.093 132.884 156.652 132.758C154.21 132.631 149.512 129.927 148.376 129.428C147.239 128.929 147.209 130.292 147.746 131.186C148.283 132.08 148.015 134.568 148.644 136.169C149.274 137.77 150.379 138.754 152.629 139.834C154.725 140.847 159.823 141.48 161.481 142.493C165.12 146.113 171.984 152.868 173.719 154.12C176.107 155.84 178.417 157.427 182.072 154.015C185.726 150.604 196.314 137.219 196.314 137.219L198.502 124.49C194.909 124.364 192.367 125.198 189.864 128.378Z" fill="#D09092"/>
<path d="M177.128 145.212C178.479 146.18 179.884 148.355 180.015 149.33C179.999 148.406 179.786 147.495 179.39 146.654C178.993 145.813 178.422 145.061 177.711 144.444L177.128 145.212Z" fill="#9A4A4D"/>
<path d="M199.346 124.178C199.346 124.178 194.279 124.118 192.053 125.63C189.826 127.142 188.176 129.354 184.559 134.456C181.389 138.925 179.853 141.07 179.853 141.07C181.929 144.049 184.951 146.288 188.46 147.446L197.918 136.08L199.346 124.178Z" fill="#1B3745"/>
<path d="M209.15 123.939C212.022 124.207 216.06 124.237 218.901 124.52C220.874 125.309 224.682 128.527 224.398 130.821C223.338 139.394 221.196 153.449 221.196 153.449L221.903 168.346C217.949 172.174 199.446 173.671 189.911 167.549C189.911 167.549 190.218 140.794 190.878 136.266C192.053 128.155 193.082 125.145 197.396 124.43C201.711 123.715 209.15 123.939 209.15 123.939Z" fill="url(#paint0_linear_1_2300)"/>
<path d="M225.411 128.594C227.484 131.231 238.155 145.427 238.155 145.427L248.013 138.024C250.316 136.266 251 133.972 252.443 132.393C253.886 130.814 255.468 130.426 257.088 129.1C258.708 127.775 259.33 126.769 259.882 127.894C260.435 129.019 258.646 131.007 258.347 131.484C258.048 131.961 256.197 133.1 258.639 132.974C261.08 132.847 265.771 130.136 266.915 129.637C268.059 129.138 268.074 130.501 267.545 131.395C267.015 132.288 267.268 134.784 266.646 136.385C266.024 137.986 264.911 138.962 262.662 140.05C260.566 141.062 255.468 141.696 253.81 142.709C250.17 146.321 243.307 153.084 241.572 154.328C239.184 156.048 236.873 157.635 233.219 154.231C229.564 150.827 221.211 140.228 221.211 140.228L216.789 124.706C220.374 124.579 222.916 125.414 225.411 128.594Z" fill="#D09092"/>
<path d="M238.155 145.427C236.804 146.396 235.399 148.571 235.269 149.546C235.283 148.621 235.496 147.708 235.892 146.866C236.288 146.023 236.86 145.27 237.572 144.653L238.155 145.427Z" fill="#9A4A4D"/>
<path d="M216.282 124.334C216.282 124.334 220.835 124.058 223.231 125.824C225.388 127.432 227.069 129.548 230.724 134.65C233.894 139.119 235.43 141.264 235.43 141.264C233.35 144.242 230.326 146.48 226.816 147.64L220.375 139.938C217.019 135.812 213.695 129.533 216.282 124.334Z" fill="#1B3745"/>
<path d="M209.864 103.769C209.879 105.478 209.372 107.152 208.406 108.581C207.44 110.01 206.059 111.129 204.437 111.797C202.816 112.464 201.027 112.65 199.296 112.331C197.566 112.012 195.972 111.203 194.716 110.005C193.46 108.807 192.598 107.275 192.239 105.602C191.881 103.929 192.042 102.19 192.702 100.606C193.362 99.0215 194.491 97.6626 195.947 96.701C197.403 95.7394 199.12 95.2182 200.882 95.2034C202.051 95.1936 203.211 95.4074 204.296 95.8325C205.38 96.2577 206.367 96.8859 207.201 97.6813C208.036 98.4767 208.7 99.4237 209.157 100.468C209.614 101.513 209.854 102.634 209.864 103.769Z" fill="#263238"/>
<path d="M216.413 109.862C216.413 109.862 215.023 116.454 214.455 117.534C214.077 118.204 213.447 118.708 212.697 118.941L212.751 114.308L216.413 109.862Z" fill="#263238"/>
<path d="M214.516 100.455C215.02 100.392 215.531 100.442 216.012 100.601C216.492 100.76 216.929 101.023 217.288 101.371C218.486 102.54 217.856 106.235 216.413 109.862L213.695 110.19L214.516 100.455Z" fill="#263238"/>
<path d="M212.882 110.197C213.427 110.509 214.195 109.452 214.863 108.796C215.531 108.141 217.711 107.158 218.832 109.385C219.953 111.612 217.911 114.688 216.191 115.224C213.22 116.163 212.752 114.308 212.752 114.308L212.629 125.049C208.974 129.689 198.694 129.383 202.932 124.542V121.369C201.609 121.584 200.265 121.662 198.925 121.6C196.729 121.295 195.339 119.626 194.648 117.332C193.55 113.653 193.113 110.673 193.957 103.396C194.879 95.4267 204.422 95.2628 209.604 98.3687C214.786 101.475 212.882 110.197 212.882 110.197Z" fill="#D09092"/>
<path d="M212.889 111.083C213.158 111.083 214.187 109.4 214.862 108.797C215.791 107.955 214.517 100.455 214.517 100.455C214.836 99.7892 214.94 99.0458 214.817 98.3216C214.694 97.5975 214.348 96.9262 213.826 96.3954C212.528 95.0324 210.716 93.3714 204.881 94.0865C200.713 94.6004 196.191 95.9038 192.513 94.1907C192.186 95.3522 192.223 96.582 192.619 97.723C193.016 98.8639 193.754 99.8643 194.74 100.596C194.74 100.596 196.075 101.416 199.569 101.795C202.789 102.001 206.023 101.914 209.227 101.535C210.24 101.393 210.463 102.339 211.031 104.939C211.53 107.21 211.968 111.076 212.889 111.083Z" fill="#263238"/>
<path d="M214.517 101.035L217.795 99.2925C217.689 99.0773 217.538 98.8853 217.353 98.7284C217.167 98.5714 216.951 98.4527 216.717 98.3796C216.483 98.3064 216.236 98.2803 215.991 98.3027C215.746 98.3252 215.508 98.3959 215.292 98.5104C214.853 98.7536 214.527 99.1518 214.383 99.6221C214.238 100.092 214.286 100.599 214.517 101.035Z" fill="#263238"/>
<path d="M202.909 121.369C202.909 121.369 207.792 120.371 209.488 119.478C210.489 118.962 211.305 118.165 211.83 117.191C211.582 118.161 211.136 119.073 210.517 119.872C209.281 121.436 202.924 122.628 202.924 122.628L202.909 121.369Z" fill="#9A4A4D"/>
<path d="M202.517 109.437C202.515 109.564 202.539 109.69 202.587 109.808C202.635 109.926 202.707 110.033 202.799 110.124C202.89 110.215 202.999 110.287 203.119 110.336C203.24 110.386 203.369 110.412 203.499 110.413C203.704 110.421 203.905 110.368 204.078 110.264C204.252 110.159 204.388 110.006 204.471 109.825C204.554 109.644 204.579 109.443 204.543 109.248C204.506 109.053 204.411 108.873 204.268 108.731C204.125 108.589 203.942 108.492 203.742 108.453C203.542 108.413 203.334 108.432 203.146 108.509C202.957 108.585 202.796 108.714 202.684 108.879C202.572 109.045 202.514 109.239 202.517 109.437Z" fill="#263238"/>
<path d="M205.427 106.167L203.246 105.206C203.12 105.495 203.113 105.821 203.227 106.115C203.341 106.409 203.568 106.649 203.86 106.785C204.005 106.847 204.16 106.88 204.318 106.883C204.476 106.885 204.633 106.856 204.779 106.799C204.925 106.741 205.058 106.655 205.169 106.547C205.28 106.438 205.368 106.309 205.427 106.167Z" fill="#263238"/>
<path d="M196.099 104.998L194.202 106.443C194.292 106.568 194.407 106.674 194.541 106.755C194.675 106.835 194.824 106.887 194.98 106.909C195.135 106.931 195.294 106.921 195.445 106.88C195.597 106.84 195.738 106.77 195.861 106.674C196.112 106.476 196.277 106.193 196.321 105.882C196.365 105.57 196.286 105.254 196.099 104.998Z" fill="#263238"/>
<path d="M194.955 109.206C194.964 109.384 195.026 109.556 195.135 109.699C195.244 109.843 195.393 109.952 195.565 110.014C195.738 110.076 195.925 110.087 196.103 110.046C196.282 110.006 196.445 109.915 196.571 109.786C196.697 109.656 196.781 109.494 196.813 109.319C196.844 109.143 196.822 108.963 196.749 108.799C196.676 108.636 196.555 108.497 196.401 108.4C196.247 108.303 196.067 108.252 195.884 108.253C195.758 108.256 195.634 108.283 195.519 108.332C195.404 108.382 195.301 108.453 195.214 108.542C195.128 108.63 195.061 108.735 195.016 108.849C194.971 108.963 194.951 109.084 194.955 109.206Z" fill="#263238"/>
<path d="M200.037 108.439L199.484 114.137L196.452 113.005L200.037 108.439Z" fill="#9A4A4D"/>
<path d="M201.703 116.275C201.702 116.456 201.756 116.634 201.859 116.786C201.961 116.938 202.108 117.056 202.281 117.127C202.453 117.197 202.643 117.216 202.827 117.182C203.011 117.147 203.18 117.061 203.312 116.933C203.445 116.805 203.536 116.642 203.573 116.464C203.61 116.286 203.592 116.101 203.521 115.933C203.449 115.766 203.328 115.622 203.173 115.521C203.017 115.42 202.835 115.366 202.648 115.366C202.398 115.366 202.159 115.462 201.982 115.632C201.806 115.802 201.705 116.033 201.703 116.275Z" fill="#9A4A4D"/>
<path d="M225.672 55.5929C227.136 55.9092 228.547 56.4232 229.863 57.1198C231.123 57.7774 232.251 58.6476 233.195 59.6894C234.104 60.6989 234.775 61.8885 235.161 63.1752C235.565 64.5393 235.596 65.9817 235.253 67.3612C235.026 68.4562 234.577 69.4967 233.932 70.4225C233.354 71.2189 232.658 71.9291 231.867 72.5303C231.094 73.1128 230.269 73.6287 229.403 74.0721L226.961 75.3234C226.225 75.6966 225.526 76.1354 224.873 76.6343C224.283 77.0683 223.831 77.6541 223.568 78.3251C223.435 78.6243 223.22 78.8821 222.946 79.0699C222.815 79.1675 222.662 79.2349 222.5 79.2672C222.338 79.2994 222.17 79.2956 222.009 79.2561L218.416 78.5113C218.244 78.476 218.08 78.4078 217.935 78.3106C217.79 78.2134 217.667 78.0892 217.572 77.9452C217.471 77.8104 217.405 77.6545 217.378 77.4901C217.352 77.3257 217.365 77.1576 217.418 76.9993C217.717 75.9158 218.24 74.9023 218.954 74.02C219.597 73.2413 220.34 72.5455 221.165 71.9494C221.962 71.3838 222.807 70.8854 223.691 70.4597C224.566 70.0351 225.38 69.6255 226.132 69.2233C226.82 68.8707 227.466 68.4461 228.059 67.9571C228.576 67.5347 228.935 66.9588 229.08 66.3184C229.213 65.7592 229.204 65.1771 229.054 64.6219C228.905 64.0668 228.618 63.5551 228.22 63.1306C227.228 62.0781 225.901 61.378 224.451 61.1419C221.769 60.5609 219.501 61.4373 217.649 63.7711C217.471 64.0266 217.244 64.2466 216.981 64.4191C216.838 64.4895 216.683 64.5317 216.523 64.5432C216.364 64.5547 216.203 64.5353 216.052 64.4862L212.213 63.6594C212.078 63.6341 211.949 63.5828 211.834 63.5087C211.719 63.4345 211.621 63.3389 211.545 63.2274C211.461 63.1133 211.405 62.9826 211.38 62.8448C211.355 62.707 211.361 62.5655 211.399 62.4304C211.722 61.2857 212.328 60.2348 213.165 59.3692C214.104 58.3632 215.219 57.5261 216.459 56.8963C217.817 56.2045 219.282 55.7316 220.796 55.496C222.412 55.2202 224.068 55.2531 225.672 55.5929ZM221.618 82.0642C221.786 82.0991 221.946 82.1674 222.086 82.2648C222.226 82.3622 222.343 82.4866 222.432 82.6302C222.526 82.7692 222.59 82.9254 222.621 83.0893C222.651 83.2532 222.647 83.4214 222.608 83.5836L221.687 87.6206C221.61 87.9429 221.406 88.2234 221.12 88.4027C220.833 88.582 220.486 88.6461 220.151 88.5814L216.082 87.71C215.915 87.6751 215.756 87.6076 215.617 87.5116C215.477 87.4156 215.358 87.293 215.269 87.1514C215.173 87.0129 215.108 86.8567 215.077 86.6926C215.047 86.5285 215.052 86.3601 215.092 86.198L216.013 82.1535C216.091 81.8313 216.294 81.5508 216.58 81.3714C216.867 81.1921 217.214 81.128 217.549 81.1927L221.618 82.0642Z" fill="#776CFF"/>
<path d="M237.74 93.572C238.756 93.4096 239.79 93.3895 240.811 93.5124C241.793 93.6205 242.748 93.898 243.629 94.3317C244.471 94.7495 245.209 95.339 245.794 96.0597C246.414 96.8322 246.814 97.7492 246.953 98.7187C247.113 99.4731 247.113 100.251 246.953 101.005C246.794 101.662 246.535 102.292 246.186 102.875C245.844 103.437 245.453 103.97 245.019 104.469L243.783 105.884C243.411 106.307 243.077 106.761 242.785 107.24C242.524 107.665 242.392 108.153 242.401 108.647C242.399 108.88 242.33 109.107 242.201 109.303C242.142 109.396 242.063 109.476 241.969 109.537C241.875 109.597 241.768 109.637 241.656 109.653L239.145 110.055C238.903 110.092 238.655 110.036 238.454 109.899C238.356 109.836 238.274 109.753 238.214 109.655C238.154 109.556 238.118 109.446 238.109 109.333C238.004 108.569 238.064 107.793 238.286 107.053C238.485 106.39 238.777 105.756 239.153 105.169C239.513 104.607 239.921 104.077 240.374 103.582C240.827 103.091 241.234 102.629 241.618 102.182C241.964 101.785 242.265 101.353 242.516 100.894C242.736 100.495 242.814 100.037 242.738 99.5902C242.676 99.1978 242.516 98.826 242.273 98.5068C242.029 98.1877 241.71 97.9306 241.341 97.7579C240.431 97.3267 239.398 97.206 238.408 97.4153C237.513 97.5433 236.681 97.936 236.024 98.5398C235.367 99.1436 234.918 99.9291 234.739 100.789C234.69 100.999 234.601 101.199 234.478 101.378C234.329 101.536 234.122 101.632 233.902 101.646L231.23 102.07C231.04 102.101 230.846 102.061 230.685 101.959C230.601 101.906 230.53 101.836 230.477 101.754C230.424 101.671 230.39 101.578 230.378 101.482C230.285 100.668 230.398 99.8452 230.708 99.0837C231.041 98.2033 231.535 97.3883 232.167 96.6779C232.855 95.8982 233.669 95.2317 234.577 94.7041C235.546 94.1311 236.62 93.7465 237.74 93.572ZM242.124 111.589C242.242 111.57 242.362 111.574 242.478 111.601C242.595 111.628 242.704 111.677 242.8 111.746C242.896 111.812 242.977 111.896 243.039 111.993C243.101 112.091 243.143 112.199 243.161 112.312L243.637 115.127C243.656 115.242 243.652 115.358 243.625 115.471C243.597 115.584 243.546 115.69 243.476 115.783C243.408 115.877 243.322 115.957 243.221 116.017C243.121 116.077 243.009 116.117 242.892 116.133L240.051 116.587C239.935 116.606 239.816 116.602 239.701 116.575C239.586 116.548 239.478 116.499 239.383 116.431C239.285 116.366 239.201 116.283 239.138 116.185C239.075 116.088 239.033 115.979 239.015 115.865L238.539 113.042C238.504 112.81 238.565 112.574 238.709 112.385C238.853 112.197 239.068 112.071 239.307 112.036L242.124 111.589Z" fill="#776CFF"/>
<g opacity="0.2">
<path opacity="0.2" d="M237.74 93.572C238.756 93.4096 239.79 93.3895 240.811 93.5124C241.793 93.6205 242.748 93.898 243.629 94.3317C244.471 94.7495 245.209 95.339 245.794 96.0597C246.414 96.8322 246.814 97.7492 246.953 98.7187C247.113 99.4731 247.113 100.251 246.953 101.005C246.794 101.662 246.535 102.292 246.186 102.875C245.843 103.437 245.453 103.97 245.019 104.469L243.783 105.884C243.41 106.307 243.077 106.761 242.784 107.24C242.524 107.665 242.391 108.153 242.401 108.647C242.399 108.88 242.33 109.107 242.201 109.303C242.142 109.396 242.063 109.476 241.969 109.537C241.875 109.597 241.768 109.637 241.656 109.653L239.145 110.055C238.903 110.092 238.655 110.036 238.454 109.899C238.356 109.836 238.274 109.753 238.214 109.655C238.154 109.556 238.118 109.446 238.109 109.333C238.004 108.569 238.064 107.793 238.286 107.053C238.485 106.39 238.777 105.756 239.153 105.169C239.512 104.607 239.921 104.077 240.374 103.582C240.827 103.091 241.234 102.629 241.618 102.182C241.964 101.785 242.265 101.353 242.516 100.894C242.736 100.495 242.814 100.037 242.738 99.5902C242.676 99.1978 242.516 98.826 242.273 98.5068C242.029 98.1877 241.71 97.9306 241.341 97.7579C240.431 97.3267 239.398 97.206 238.408 97.4153C237.513 97.5433 236.681 97.936 236.024 98.5398C235.367 99.1436 234.918 99.9291 234.739 100.789C234.69 100.999 234.601 101.199 234.478 101.378C234.329 101.536 234.122 101.632 233.902 101.646L231.23 102.07C231.04 102.101 230.846 102.061 230.685 101.959C230.601 101.906 230.53 101.836 230.477 101.754C230.424 101.671 230.39 101.578 230.378 101.482C230.285 100.668 230.398 99.8452 230.708 99.0837C231.041 98.2033 231.535 97.3883 232.167 96.6779C232.855 95.8982 233.669 95.2317 234.577 94.7041C235.546 94.1311 236.62 93.7465 237.74 93.572ZM242.124 111.589C242.242 111.57 242.362 111.574 242.478 111.601C242.594 111.628 242.704 111.677 242.8 111.746C242.896 111.812 242.977 111.896 243.039 111.993C243.101 112.091 243.143 112.199 243.161 112.312L243.637 115.127C243.656 115.242 243.652 115.358 243.625 115.471C243.597 115.584 243.546 115.69 243.475 115.783C243.408 115.877 243.322 115.957 243.221 116.017C243.121 116.077 243.009 116.117 242.892 116.133L240.051 116.587C239.935 116.606 239.816 116.602 239.701 116.575C239.586 116.548 239.478 116.499 239.383 116.431C239.285 116.366 239.201 116.283 239.138 116.185C239.075 116.088 239.033 115.979 239.015 115.865L238.539 113.042C238.504 112.81 238.565 112.574 238.709 112.385C238.853 112.197 239.068 112.071 239.307 112.036L242.124 111.589Z" fill="black"/>
</g>
<path d="M263.921 101.564C264.149 101.725 264.303 101.967 264.35 102.236C264.397 102.506 264.334 102.784 264.174 103.009L262.147 105.765C261.981 105.986 261.732 106.136 261.454 106.181C261.176 106.227 260.89 106.166 260.658 106.011L257.878 104.096C257.764 104.019 257.667 103.919 257.593 103.804C257.519 103.689 257.47 103.56 257.449 103.426C257.408 103.165 257.471 102.899 257.625 102.681L259.652 99.9179C259.816 99.6957 260.065 99.5458 260.343 99.5008C260.613 99.4614 260.888 99.5255 261.111 99.6795L263.921 101.564ZM275.652 82.8761C276.654 83.5621 277.549 84.3849 278.308 85.3192C279.042 86.2082 279.606 87.2171 279.974 88.2985C280.326 89.332 280.444 90.427 280.32 91.5087C280.176 92.6606 279.726 93.7564 279.014 94.6891C278.484 95.4433 277.806 96.0887 277.018 96.5885C276.318 97.0102 275.558 97.3289 274.761 97.5344C273.989 97.7343 273.2 97.8689 272.404 97.9366L270.147 98.1228C269.473 98.1828 268.805 98.2974 268.151 98.4654C267.565 98.6155 267.034 98.9197 266.615 99.3443C266.414 99.5344 266.165 99.6704 265.894 99.7391C265.762 99.7694 265.625 99.7712 265.492 99.7441C265.359 99.7171 265.234 99.662 265.126 99.5827L262.669 97.8919C262.435 97.7282 262.275 97.4825 262.224 97.2067C262.195 97.0766 262.197 96.9416 262.23 96.8124C262.263 96.6832 262.327 96.5632 262.416 96.4618C262.987 95.735 263.706 95.1292 264.527 94.6817C265.266 94.2885 266.056 93.9929 266.876 93.8028C267.663 93.6183 268.464 93.4987 269.272 93.4453C270.039 93.4006 270.807 93.341 271.514 93.274C272.148 93.2209 272.773 93.0985 273.379 92.909C273.907 92.753 274.366 92.4306 274.684 91.9929C274.97 91.6136 275.155 91.1724 275.225 90.7076C275.294 90.2429 275.246 89.7687 275.084 89.3264C274.683 88.2287 273.916 87.2926 272.903 86.6673C271.076 85.4011 269.08 85.3589 266.915 86.5407C266.696 86.676 266.454 86.7719 266.201 86.8237C266.069 86.8328 265.937 86.8164 265.811 86.7755C265.686 86.7346 265.571 86.67 265.471 86.5854L262.861 84.7829C262.671 84.6575 262.539 84.4651 262.493 84.2466C262.47 84.1349 262.473 84.0198 262.501 83.9092C262.529 83.7987 262.581 83.6952 262.654 83.6061C263.262 82.8442 264.052 82.2382 264.957 81.8408C265.995 81.3748 267.11 81.0899 268.251 80.9992C269.499 80.9004 270.756 80.9959 271.974 81.2822C273.297 81.5717 274.547 82.1135 275.652 82.8761Z" fill="#776CFF"/>
<g opacity="0.6">
<path opacity="0.6" d="M263.921 101.564C264.149 101.725 264.303 101.967 264.35 102.236C264.397 102.506 264.334 102.784 264.174 103.009L262.147 105.765C261.981 105.986 261.732 106.136 261.454 106.181C261.176 106.227 260.89 106.166 260.658 106.011L257.878 104.096C257.764 104.019 257.667 103.919 257.593 103.804C257.519 103.689 257.47 103.56 257.449 103.426C257.408 103.165 257.471 102.899 257.625 102.681L259.652 99.9179C259.816 99.6957 260.065 99.5458 260.343 99.5008C260.613 99.4614 260.888 99.5255 261.111 99.6795L263.921 101.564ZM275.652 82.8761C276.654 83.5621 277.549 84.3849 278.308 85.3192C279.042 86.2082 279.606 87.2171 279.974 88.2985C280.326 89.332 280.444 90.427 280.32 91.5087C280.176 92.6606 279.726 93.7564 279.014 94.6891C278.484 95.4433 277.806 96.0887 277.018 96.5885C276.318 97.0102 275.558 97.3289 274.761 97.5344C273.989 97.7343 273.2 97.8689 272.404 97.9366L270.147 98.1228C269.473 98.1828 268.805 98.2974 268.151 98.4654C267.565 98.6155 267.034 98.9197 266.615 99.3443C266.414 99.5344 266.165 99.6704 265.894 99.7391C265.762 99.7694 265.625 99.7712 265.492 99.7441C265.359 99.7171 265.234 99.662 265.126 99.5827L262.669 97.8919C262.435 97.7282 262.275 97.4825 262.224 97.2067C262.195 97.0766 262.197 96.9416 262.23 96.8124C262.263 96.6832 262.327 96.5632 262.416 96.4618C262.987 95.735 263.706 95.1292 264.527 94.6817C265.266 94.2885 266.056 93.9929 266.876 93.8028C267.663 93.6183 268.464 93.4987 269.272 93.4453C270.039 93.4006 270.807 93.341 271.514 93.274C272.148 93.2209 272.773 93.0985 273.379 92.909C273.907 92.753 274.366 92.4306 274.684 91.9929C274.97 91.6136 275.155 91.1724 275.225 90.7076C275.294 90.2429 275.246 89.7687 275.084 89.3264C274.683 88.2287 273.916 87.2926 272.903 86.6673C271.076 85.4011 269.08 85.3589 266.915 86.5407C266.696 86.676 266.454 86.7719 266.201 86.8237C266.069 86.8328 265.937 86.8164 265.811 86.7755C265.686 86.7346 265.571 86.67 265.471 86.5854L262.861 84.7829C262.671 84.6575 262.539 84.4651 262.493 84.2466C262.47 84.1349 262.473 84.0198 262.501 83.9092C262.529 83.7987 262.581 83.6952 262.654 83.6061C263.262 82.8442 264.052 82.2382 264.957 81.8408C265.995 81.3748 267.11 81.0899 268.251 80.9992C269.499 80.9004 270.756 80.9959 271.974 81.2822C273.297 81.5717 274.547 82.1135 275.652 82.8761Z" fill="white"/>
</g>
<path d="M124.766 155.232C122.375 153.906 112.311 148.259 108.889 146.339C108.209 145.964 107.782 145.72 107.748 145.696C106.047 144.776 104.059 144.487 102.154 144.882C100.519 145.204 98.9529 145.796 97.5242 146.632C97.2893 146.762 97.0545 146.916 96.828 147.063C92.9615 149.431 89.6402 153.157 86.8724 158.284C84.0542 163.277 82.5422 168.865 82.4692 174.557C82.4692 179.949 83.9509 183.733 86.9144 185.908C87.2144 186.125 87.5282 186.323 87.8537 186.502C90.6299 188.032 104.553 195.86 104.863 196.031H104.938C104.596 195.848 104.268 195.642 103.957 195.412C100.988 193.242 99.5063 189.461 99.5119 184.069C99.5849 178.377 101.097 172.789 103.915 167.796C106.84 162.371 110.387 158.484 114.558 156.136C118.528 153.911 121.956 153.621 124.841 155.265L124.766 155.232Z" fill="#29D9D0"/>
<path opacity="0.4" d="M124.841 155.282C121.956 153.655 118.529 153.942 114.559 156.144C110.684 158.314 107.343 161.84 104.536 166.722L87.4932 157.145C90.1268 152.581 93.2384 149.22 96.8197 147.031C97.0462 146.893 97.281 146.73 97.5159 146.6C98.9432 145.763 100.51 145.174 102.146 144.859C104.05 144.458 106.04 144.748 107.74 145.672L108.88 146.315C112.302 148.227 122.367 153.874 124.757 155.201L124.841 155.282Z" fill="black"/>
<path opacity="0.3" d="M104.938 196.006H104.863C104.553 195.835 90.6047 188.007 87.8537 186.478C87.5282 186.299 87.2144 186.1 86.9144 185.884C83.9509 183.714 82.4692 179.933 82.4692 174.541C82.5401 168.848 84.0522 163.26 86.8724 158.267C87.0737 157.885 87.2834 157.51 87.5015 157.152L104.536 166.697C104.326 167.055 104.116 167.429 103.915 167.804C101.097 172.797 99.5849 178.385 99.5119 184.077C99.5119 189.469 100.994 193.25 103.957 195.42C104.269 195.638 104.597 195.834 104.938 196.006Z" fill="black"/>
<path d="M117.335 15.6039C125.605 10.9659 132.644 8.99405 138.454 9.68839C140.818 9.96242 143.101 10.6987 145.163 11.8528C145.106 11.8233 145.05 11.7907 144.996 11.7552C143 10.6648 130.972 3.93563 128.221 2.36521C126.123 1.17531 123.792 0.421627 121.377 0.151984C115.562 -0.536937 108.52 1.43219 100.25 6.05935C87.3898 13.2578 77.0456 23.8357 69.2176 37.7931C61.3896 51.7506 57.5175 65.9982 57.6014 80.5361L74.6357 90.0807C74.5183 75.5319 78.3904 61.2816 86.252 47.3296C94.1135 33.3775 104.474 22.8023 117.335 15.6039Z" fill="#29D9D0"/>
<path opacity="0.2" d="M145.029 11.7633C142.997 10.665 140.764 9.96027 138.454 9.68844C132.65 8.99409 125.61 10.9659 117.335 15.6039C104.475 22.7969 94.1304 33.3749 86.3024 47.3377C85.9753 47.9154 85.6566 48.5013 85.3462 49.079L68.2699 39.5182C68.5803 38.9405 68.899 38.3546 69.2261 37.7769C77.0877 23.8303 87.4318 13.2524 100.259 6.04312C108.54 1.41053 115.582 -0.558588 121.386 0.135758C123.801 0.408138 126.132 1.16459 128.23 2.35712C131.006 3.94381 143.033 10.6811 145.029 11.7633Z" fill="black"/>
<path opacity="0.3" d="M85.3042 49.0626C78.0856 62.4559 74.5323 76.1231 74.6441 90.0643L57.6098 80.5197C57.5035 66.5732 61.0569 52.9059 68.2699 39.5181L85.3042 49.0626Z" fill="black"/>
<path d="M128.909 42.6508C125.817 41.056 121.688 41.6798 116.521 44.5223C116.347 47.5045 115.713 50.4446 114.642 53.245C113.351 56.6191 109.593 63.5788 103.37 74.1242C96.9231 85.0276 92.2599 95.4401 89.3803 105.362C86.5242 115.157 85.0735 125.288 85.0693 135.468L85.1531 140.537L96.7778 147.047L102.196 150.082L102.104 145.004V144.939C102.122 134.792 103.573 124.696 106.415 114.931C109.294 105.009 113.96 94.5993 120.413 83.7013C126.631 73.1559 130.385 66.1935 131.677 62.814C132.967 59.473 133.626 55.9339 133.623 52.3662C133.623 47.5112 132.051 44.2728 128.909 42.6508Z" fill="#29D9D0"/>
<path opacity="0.3" d="M130.008 66.4674C128.084 70.3514 124.886 76.0852 120.413 83.6687C113.955 94.5722 109.289 104.985 106.415 114.906C103.57 124.679 102.119 134.784 102.104 144.939V145.07L102.196 150.147L96.7778 147.12L85.1531 140.611L85.0693 135.533C85.0742 125.353 86.5248 115.222 89.3803 105.427C92.2599 95.5052 96.9231 85.0927 103.37 74.1893C107.843 66.5949 111.047 60.8638 112.982 56.9961L130.008 66.4674Z" fill="black"/>
<path opacity="0.4" d="M133.623 52.3662C133.624 55.9225 132.968 59.4501 131.685 62.7814C131.325 63.7334 130.763 64.9621 130.008 66.4674L112.982 56.931C113.726 55.423 114.285 54.1943 114.659 53.245C115.73 50.4446 116.363 47.5045 116.538 44.5223C121.705 41.6798 125.834 41.056 128.926 42.6508C132.018 44.2456 133.584 47.4841 133.623 52.3662Z" fill="black"/>
<path d="M97.7005 77.143L74.6441 90.0643C74.5267 75.5156 78.3988 61.2652 86.2604 47.3132C94.1219 33.3612 104.466 22.7833 117.293 15.5794C125.563 10.9414 132.602 8.96959 138.412 9.66394C144.221 10.3583 148.871 13.4476 152.36 18.9318C155.854 24.4161 157.602 31.2565 157.602 39.453C157.567 44.2117 157.005 48.953 155.924 53.5949C154.617 59.1476 152.853 64.5897 150.649 69.8686C149.24 73.3187 145.865 79.6871 140.525 88.974C135.42 97.8269 132.222 103.851 130.93 107.046C129.497 110.839 128.433 114.753 127.752 118.739C126.736 124.695 126.176 130.717 126.074 136.754L102.23 150.114L102.137 145.037C102.142 134.857 103.593 124.726 106.448 114.931C109.328 105.009 113.994 94.5993 120.447 83.7013C126.664 73.1559 130.419 66.1935 131.71 62.814C132.989 59.4709 133.637 55.9319 133.623 52.3662C133.623 47.4841 132.054 44.2456 128.918 42.6508C125.781 41.056 121.57 41.7232 116.286 44.6525C110.885 47.6794 106.454 52.2198 102.993 58.2736C99.6079 64.0262 97.7867 70.5196 97.7005 77.143Z" fill="#29D9D0"/>
<path d="M114.517 156.193C118.794 153.79 122.445 153.64 125.47 155.745C128.495 157.85 130.008 161.595 130.008 166.982C129.916 172.706 128.375 178.319 125.521 183.329C122.535 188.835 118.926 192.773 114.693 195.144C110.46 197.514 106.865 197.612 103.907 195.437C100.944 193.267 99.4618 189.483 99.4618 184.086C99.5349 178.393 101.047 172.805 103.865 167.812C106.801 162.398 110.351 158.525 114.517 156.193Z" fill="#29D9D0"/>
<defs>
<linearGradient id="paint0_linear_1_2300" x1="207.162" y1="123.906" x2="207.162" y2="171.683" gradientUnits="userSpaceOnUse">
<stop stop-color="#7A4BFF"/>
<stop offset="0.953125" stop-color="#B4AEFF"/>
</linearGradient>
</defs>
</svg>
