<svg width="227" height="264" viewBox="0 0 227 264" fill="none" xmlns="http://www.w3.org/2000/svg">
<path d="M85.9553 171.068C85.9553 174.573 88.2954 178.077 93.0386 180.785C102.516 186.147 117.943 186.147 127.492 180.785C132.262 178.104 134.692 174.59 134.692 171.068V178.077C134.692 181.582 132.271 185.086 127.492 187.794C117.943 193.156 102.516 193.156 93.0386 187.794C88.2954 185.104 85.9373 181.591 85.9553 178.077V171.068Z" fill="#29D9D0"/>
<path d="M127.483 180.785C117.933 186.147 102.507 186.147 93.0292 180.785C88.286 178.104 85.9279 174.591 85.9459 171.069C85.9639 167.547 88.367 164.06 93.1462 161.361C102.696 155.99 118.122 155.99 127.6 161.361C132.343 164.042 134.701 167.555 134.683 171.069C134.665 174.582 132.253 178.104 127.483 180.785Z" fill="#29D9D0"/>
<path opacity="0.1" d="M85.9553 171.068C85.9553 174.573 88.2954 178.077 93.0386 180.785C102.516 186.147 117.943 186.147 127.492 180.785C132.262 178.104 134.692 174.59 134.692 171.068V178.077C134.692 181.582 132.271 185.086 127.492 187.794C117.943 193.156 102.516 193.156 93.0386 187.794C88.2954 185.104 85.9373 181.591 85.9553 178.077V171.068Z" fill="black"/>
<path opacity="0.3" d="M127.483 180.785C117.933 186.147 102.507 186.147 93.0292 180.785C88.286 178.104 85.9279 174.591 85.9459 171.069C85.9639 167.547 88.367 164.06 93.1462 161.361C102.696 155.99 118.122 155.99 127.6 161.361C132.343 164.042 134.701 167.555 134.683 171.069C134.665 174.582 132.253 178.104 127.483 180.785Z" fill="black"/>
<path opacity="0.2" d="M122.533 174.469C115.738 178.289 104.757 178.289 98.0069 174.469C94.6317 172.559 92.9487 170.088 92.9667 167.547C92.9847 165.006 94.6857 162.544 98.0879 160.634C104.883 156.815 115.864 156.815 122.614 160.634C125.989 162.544 127.672 165.015 127.654 167.547C127.636 170.079 125.935 172.541 122.533 174.469Z" fill="black"/>
<path d="M71.6729 153.754C50.77 133.406 50.77 100.416 71.673 80.0683C92.5759 59.7205 126.466 59.7205 147.369 80.0683C168.272 100.416 168.272 133.406 147.369 153.754C126.466 174.102 92.5759 174.102 71.6729 153.754Z" fill="#134159"/>
<path d="M159.012 103.186C158.683 104.897 158.211 106.579 157.599 108.215C157.086 109.888 156.357 112.105 157.158 113.664C157.516 114.267 157.785 114.916 157.959 115.592C158.04 115.923 158.051 116.268 157.99 116.604C157.93 116.94 157.8 117.26 157.608 117.545C157.149 118.15 156.357 118.422 155.808 119C154.808 120.06 155.025 121.716 154.62 123.1C154.402 123.791 154.02 124.423 153.506 124.945C152.992 125.467 152.359 125.865 151.658 126.105C151.055 126.316 150.173 126.263 150.038 125.65C149.903 125.036 150.434 124.774 150.866 124.432C151.912 123.685 152.806 122.755 153.503 121.69C153.662 121.482 153.762 121.237 153.791 120.98C153.801 120.851 153.762 120.724 153.683 120.621C153.604 120.518 153.489 120.446 153.359 120.419C152.648 120.638 152.459 121.514 152.054 122.101C151.779 122.473 151.385 122.745 150.934 122.875C150.483 123.005 150 122.986 149.561 122.82C149.402 122.738 149.233 122.676 149.057 122.636C148.846 122.614 148.632 122.632 148.427 122.688C147.013 122.886 145.668 123.409 144.503 124.213C143.675 125.009 142.958 125.908 142.37 126.885C141.772 127.868 140.803 128.585 139.67 128.883C138.698 128.921 137.725 128.824 136.781 128.593C135.591 128.473 134.391 128.698 133.334 129.242C133.944 129.856 134.387 130.609 134.623 131.432C134.858 132.255 134.879 133.122 134.684 133.955C134.558 134.481 134.333 134.981 134.252 135.515C134.21 136.358 134.249 137.203 134.369 138.038C134.419 138.46 134.363 138.888 134.207 139.285C134.05 139.682 133.797 140.036 133.469 140.316C132.686 140.868 131.398 140.789 130.975 141.639C130.822 141.937 130.831 142.287 130.705 142.594C130.495 142.952 130.184 143.244 129.81 143.436C129.435 143.629 129.012 143.713 128.59 143.681C127.746 143.606 126.894 143.714 126.097 143.996C124.936 144.6 124.657 146.055 124.09 147.211C123.759 147.876 123.298 148.472 122.731 148.964C122.047 149.559 121.183 150.059 120.886 150.9C120.815 151.398 120.676 151.884 120.472 152.345C120.085 152.932 119.203 153.108 118.897 153.739C118.805 154.038 118.745 154.347 118.717 154.658C118.6 155.068 118.38 155.443 118.076 155.749C117.773 156.055 117.396 156.282 116.98 156.411C116.146 156.656 115.276 156.762 114.406 156.726H111.706C111.193 156.726 110.572 156.674 110.347 156.218C110.275 155.985 110.295 155.735 110.403 155.516C110.511 155.297 110.7 155.126 110.932 155.035C111.397 154.861 111.879 154.734 112.372 154.658C112.914 154.503 113.405 154.21 113.794 153.81C114.183 153.41 114.456 152.917 114.586 152.381C114.634 152.033 114.7 151.688 114.784 151.347C114.963 150.892 115.192 150.457 115.468 150.05C116.144 148.848 116.376 147.456 116.125 146.107C115.999 145.406 115.729 144.723 115.666 144.005C115.638 142.971 115.825 141.943 116.215 140.982C116.311 140.755 116.342 140.507 116.305 140.264C116.181 139.984 115.978 139.744 115.72 139.571C114.316 138.354 114.991 136.286 115.648 134.569C115.9 133.903 115.45 133.193 115.072 132.58C114.694 131.967 114.379 131.134 114.856 130.591C115.042 130.425 115.264 130.301 115.505 130.229C115.746 130.156 116.001 130.136 116.251 130.171C116.97 130.189 117.683 130.31 118.366 130.53C119.266 130.81 120.166 131.248 121.012 130.95C121.676 130.601 122.24 130.095 122.65 129.478C122.867 129.171 123.176 128.935 123.534 128.802C123.893 128.668 124.285 128.645 124.657 128.734C124.954 128.848 125.206 129.093 125.557 129.119C125.741 129.106 125.919 129.05 126.076 128.955C126.233 128.861 126.363 128.73 126.457 128.576C126.652 128.259 126.924 127.995 127.249 127.805C128.005 127.472 128.932 128.199 129.688 127.866C130.01 127.661 130.296 127.406 130.534 127.113C131.342 126.562 132.313 126.285 133.298 126.324C133.815 126.296 134.318 126.149 134.765 125.894C135.213 125.64 135.592 125.286 135.872 124.861C135.759 124.419 135.69 123.967 135.665 123.512C135.691 123.315 135.761 123.127 135.87 122.959C135.979 122.792 136.125 122.65 136.296 122.543C136.468 122.436 136.661 122.367 136.863 122.341C137.065 122.314 137.27 122.331 137.465 122.39C137.599 122.428 137.718 122.505 137.807 122.609C138.14 123.021 137.654 123.608 137.735 124.125C137.816 124.642 138.635 124.94 139.256 125.001C139.616 125.035 139.98 124.987 140.318 124.861C140.68 124.678 140.989 124.41 141.218 124.081C141.716 123.508 142.13 122.872 142.451 122.189C142.607 121.845 142.688 121.474 142.688 121.098C142.688 120.723 142.607 120.351 142.451 120.007C142.282 119.673 142.001 119.404 141.654 119.244C141.308 119.085 140.916 119.045 140.543 119.131C140.237 119.219 139.904 119.412 139.643 119.254C139.382 119.096 139.445 118.483 139.328 118.08C139.148 117.449 138.221 117.335 137.627 117.633C137.083 118.014 136.569 118.433 136.088 118.886C135.672 119.12 135.283 119.396 134.927 119.709C134.666 119.999 134.468 120.402 134.081 120.472C133.694 120.542 133.271 120.104 133.253 119.674C133.284 119.243 133.437 118.828 133.694 118.474C134.693 116.722 135.557 114.777 135.116 112.841C134.981 112.32 134.798 111.812 134.567 111.325C134.141 110.086 133.364 108.989 132.326 108.162C131.895 107.93 131.486 107.663 131.101 107.365C130.758 106.954 130.573 106.44 130.579 105.91C129.694 106.133 128.765 106.133 127.879 105.91C127.498 105.838 127.15 105.648 126.889 105.367C126.733 105.155 126.645 104.901 126.637 104.64C126.619 104.195 126.756 103.757 127.025 103.398C127.295 103.038 127.682 102.778 128.122 102.66C128.59 102.546 129.184 102.564 129.454 102.169C129.539 102.038 129.584 101.886 129.584 101.731C129.584 101.576 129.539 101.424 129.454 101.293C129.269 101.029 129.01 100.822 128.707 100.697C128.08 100.396 127.364 100.315 126.682 100.47C126.343 100.55 126.027 100.703 125.758 100.919C125.488 101.134 125.272 101.406 125.125 101.714C124.855 102.301 124.846 103.054 124.333 103.466C124.149 103.595 123.934 103.676 123.709 103.702C123.484 103.728 123.256 103.698 123.046 103.615C122.629 103.447 122.254 103.193 121.948 102.87C121.736 102.704 121.563 102.495 121.442 102.258C121.321 102.02 121.254 101.76 121.246 101.495C121.28 101.296 121.358 101.107 121.474 100.94C121.591 100.774 121.743 100.634 121.921 100.531C122.272 100.321 122.642 100.145 123.028 100.005C124.128 99.5314 125.106 98.8251 125.89 97.9376C126.394 97.3681 126.79 96.7373 127.33 96.1853C127.967 95.4895 128.8 94.9901 129.724 94.7485C130.182 94.6347 130.659 94.6165 131.125 94.695C131.59 94.7735 132.033 94.947 132.425 95.204C132.575 95.3315 132.749 95.4297 132.938 95.4932C133.415 95.6071 133.838 95.169 134.198 94.8711C135.098 94.1877 137.042 93.8898 137.492 94.8711C137.753 95.4494 137.375 96.0977 137.24 96.7198C137.164 97.2511 137.225 97.7924 137.417 98.2953C137.608 98.7983 137.925 99.2473 138.338 99.6022C138.458 99.7033 138.559 99.8251 138.635 99.9614C138.824 100.435 138.248 100.838 138.005 101.284C137.881 101.506 137.84 101.762 137.888 102.009C137.936 102.257 138.07 102.481 138.267 102.644C138.465 102.806 138.714 102.897 138.973 102.902C139.232 102.907 139.484 102.824 139.688 102.669C140.462 102.09 140.246 100.794 140.975 100.172C141.479 99.7512 142.226 99.795 142.775 99.4971C143.136 99.2526 143.429 98.9242 143.627 98.5418C143.825 98.1593 143.922 97.7349 143.909 97.3068C144 96.4166 143.808 95.5207 143.36 94.7397C143.132 94.3526 142.808 94.0268 142.419 93.7913C142.029 93.5558 141.586 93.4181 141.128 93.3904C140.669 93.3904 140.228 93.5043 139.742 93.4781C139.509 93.4873 139.279 93.4222 139.087 93.2925C138.895 93.1628 138.752 92.9757 138.68 92.7596C138.65 92.569 138.665 92.3741 138.725 92.1901C138.877 91.6155 138.877 91.0125 138.725 90.4379C138.64 90.1515 138.457 89.9018 138.207 89.7299C137.956 89.5579 137.654 89.4739 137.348 89.4917C137.09 89.5522 136.858 89.6893 136.684 89.8839C136.51 90.0786 136.402 90.3212 136.376 90.5781C136.333 91.0968 136.452 91.616 136.718 92.0675C136.808 92.2159 136.869 92.3793 136.898 92.5494C136.897 92.6898 136.858 92.8276 136.785 92.949C136.713 93.0704 136.609 93.1713 136.484 93.2415C136.231 93.3781 135.952 93.4645 135.665 93.4956C135.125 93.6393 134.561 93.6769 134.007 93.6062C133.452 93.5355 132.917 93.3579 132.434 93.0838C132.241 92.9561 132.091 92.7765 132.002 92.5669C131.934 92.2798 131.913 91.9842 131.939 91.6907C131.894 90.8847 131.254 90.2188 131.038 89.4478C130.924 89.0808 130.899 88.693 130.965 88.3149C131.031 87.9368 131.186 87.5787 131.418 87.2687C131.65 86.9588 131.952 86.7055 132.302 86.5287C132.652 86.352 133.039 86.2565 133.433 86.25C134.531 86.25 135.548 86.9071 136.646 86.837C136.941 86.8321 137.227 86.7302 137.456 86.5478C137.684 86.2883 137.864 85.9918 137.987 85.6717C138.149 85.3826 138.455 85.0935 138.788 85.1548C139.121 85.2161 139.292 85.5315 139.427 85.8207C139.622 86.1861 139.767 86.5749 139.859 86.9771C140.003 87.7657 139.724 88.5892 139.859 89.3778C139.94 89.737 140.228 90.14 140.597 90.0524C140.749 90.0077 140.88 89.9113 140.966 89.7808C141.201 89.4801 141.316 89.1065 141.29 88.7294C141.29 88.1512 140.921 87.4941 141.29 87.0472C141.385 86.9623 141.497 86.8969 141.618 86.8552C141.74 86.8134 141.869 86.7961 141.998 86.8043C142.126 86.8125 142.252 86.846 142.367 86.9028C142.482 86.9596 142.584 87.0386 142.667 87.1349C143.016 87.5533 143.243 88.0557 143.324 88.5892C143.468 88.3239 143.709 88.1208 143.999 88.0197C144.101 88.0025 144.197 87.9603 144.278 87.8971C144.359 87.778 144.4 87.637 144.395 87.4941C144.447 87.2473 144.577 87.0229 144.768 86.8529C144.959 86.6829 145.2 86.5761 145.457 86.5478C145.791 86.5302 146.124 86.5883 146.431 86.7174C146.738 86.8466 147.01 87.0433 147.226 87.2922C147.441 87.541 147.594 87.8352 147.673 88.1515C147.752 88.4678 147.755 88.7976 147.68 89.1149C147.446 89.7107 146.78 90.2013 146.924 90.8234C147.076 90.7667 147.239 90.7455 147.4 90.7616C147.562 90.7776 147.717 90.8304 147.854 90.9157C147.991 91.001 148.105 91.1164 148.187 91.2525C148.269 91.3887 148.318 91.5418 148.328 91.6995C148.779 91.6915 149.221 91.5754 149.615 91.3615C150.01 91.1475 150.343 90.8423 150.587 90.4729C151.079 89.7268 151.791 89.1433 152.63 88.7995C153.215 88.6418 153.863 88.7995 154.43 88.633C155.92 90.8689 157.232 93.212 158.355 95.6421C158.454 96.2379 158.544 96.8336 158.634 97.3944C159.03 99.2991 159.157 101.247 159.012 103.186Z" fill="#29D9D0"/>
<path d="M119.212 80.4065C119.4 80.2521 119.55 80.0586 119.651 79.8403C119.752 79.622 119.802 79.3843 119.797 79.1449C119.78 78.6663 119.732 78.1893 119.653 77.7168C119.531 76.5719 119.766 75.4179 120.328 74.405C120.548 73.9627 120.891 73.5894 121.318 73.3273C121.831 73.102 122.394 73.0056 122.956 73.047C125.791 73.047 128.644 73.5376 131.443 73.0995C132.255 72.928 133.08 72.8167 133.909 72.7666C135.781 72.7666 138.301 73.9056 138.859 75.8156C138.985 76.1694 138.982 76.5547 138.849 76.9061C138.716 77.2574 138.462 77.5532 138.13 77.743C136.834 78.5491 136.177 77.6029 135.115 77.0421C134.053 76.4814 132.73 76.9983 131.596 76.6391C131.356 76.5345 131.101 76.4665 130.84 76.4376C130.192 76.4376 129.805 77.2086 129.895 77.8394C130.066 78.4496 130.311 79.0378 130.624 79.5917C130.775 79.87 130.836 80.1863 130.8 80.499C130.763 80.8118 130.629 81.1064 130.417 81.344C130.3 81.4491 130.147 81.5367 130.102 81.6769C130.012 81.9748 130.399 82.1588 130.678 82.3077C131.032 82.5036 131.301 82.8169 131.436 83.1902C131.572 83.5634 131.565 83.9717 131.416 84.3403C131.137 84.9711 130.516 85.3654 130.165 85.9787C129.995 86.5725 129.794 87.1573 129.562 87.731C129.256 88.0695 128.877 88.3383 128.453 88.5185C128.028 88.6987 127.568 88.7858 127.105 88.7736C127.062 89.1025 126.947 89.4186 126.768 89.7011C126.59 89.9835 126.352 90.2259 126.07 90.4119C125.73 90.5574 125.351 90.5967 124.987 90.5246C124.623 90.4524 124.291 90.2723 124.036 90.0089C123.549 89.4658 123.236 88.7957 123.136 88.0814C123.057 87.5395 122.927 87.0058 122.749 86.4869C122.468 85.9683 122.085 85.5088 121.622 85.1344C121.158 84.7601 120.624 84.4783 120.049 84.3053C119.243 84.0864 118.492 83.7076 117.844 83.1926C117.689 83.0602 117.563 82.8989 117.474 82.7184C117.385 82.5378 117.334 82.3417 117.324 82.1415C117.313 81.9414 117.345 81.7413 117.415 81.5532C117.486 81.365 117.595 81.1926 117.736 81.0461C118.141 80.7044 118.771 80.7219 119.212 80.4065Z" fill="#29D9D0"/>
<path d="M68.1613 105.156C68.2566 104.957 68.3842 104.773 68.5393 104.613C68.8724 104.228 69.3404 103.807 69.8354 103.956C70.3304 104.105 70.4744 104.937 70.5104 105.551C70.5662 106.36 70.8496 107.139 71.3295 107.802L72.6525 107.583C73.3006 106.418 72.8325 104.955 72.3645 103.711L70.3934 98.5239C70.1681 97.994 70.0168 97.4371 69.9434 96.868C69.9345 96.1138 70.0719 95.3648 70.3484 94.6602C69.6185 92.4503 69.1741 90.1606 69.0254 87.8439C68.9777 87.2581 69.011 86.6687 69.1244 86.0916C69.3127 85.4097 69.5942 84.7555 69.9614 84.1466L71.0505 82.1665C71.1684 81.8978 71.3468 81.6583 71.5725 81.4656C71.7696 81.3368 71.9848 81.2364 72.2115 81.1677C73.2387 80.7736 74.1396 80.1204 74.8216 79.2753C76.1537 77.6369 76.9547 75.6656 78.7008 74.4478C80.1265 73.5553 81.6877 72.8871 83.327 72.4677C83.9863 72.2082 84.6958 72.0916 85.4061 72.126C86.0545 72.2478 86.6779 72.4728 87.2512 72.7919C88.666 73.4143 90.1988 73.7426 91.7514 73.7556C91.898 73.7366 92.0471 73.7487 92.1884 73.7911C92.3298 73.8334 92.4601 73.905 92.5704 74.0009C92.66 74.1571 92.6856 74.3405 92.6422 74.5143C92.5988 74.6882 92.4896 74.8396 92.3364 74.9384C92.0484 75.1574 91.6793 75.2626 91.3733 75.4729C91.6614 76.1387 93.0294 75.9197 93.3264 76.5768C93.4164 76.7695 93.3984 77.0148 93.5514 77.1725C93.654 77.2575 93.7859 77.3013 93.9205 77.2952C94.5865 77.2952 95.0545 76.6644 95.3425 76.0774C95.5343 75.4527 95.9411 74.9113 96.4946 74.5441C96.69 74.4584 96.9043 74.4215 97.118 74.4368C97.3318 74.4521 97.5382 74.5191 97.7186 74.6318C97.8806 74.7369 98.0156 74.8771 98.1776 74.9735C98.4144 75.0836 98.6715 75.1462 98.9337 75.1574C99.7039 75.2511 100.48 75.295 101.256 75.2889C101.324 75.2706 101.395 75.2706 101.463 75.2889C101.515 75.3359 101.553 75.3967 101.571 75.4641C101.822 76.2177 102.003 76.9918 102.111 77.7771C102.122 78.4224 102.336 79.049 102.723 79.5732C102.806 79.6457 102.876 79.7317 102.93 79.8272C102.952 79.9194 102.952 80.0154 102.93 80.1076C102.886 80.352 102.78 80.582 102.623 80.7775C102.467 80.9731 102.263 81.1281 102.03 81.229C101.229 81.562 100.275 81.229 99.4377 81.4481C99.0867 81.5532 98.7177 81.7723 98.3756 81.6321C98.2325 81.5541 98.1182 81.4343 98.0488 81.2897C97.9793 81.1451 97.9583 80.9829 97.9886 80.826C98.0628 80.5255 98.1652 80.2322 98.2946 79.9499C98.5166 79.1087 98.394 78.2165 97.9526 77.4617C97.9176 77.6873 97.8327 77.9029 97.7037 78.0935C97.5747 78.2841 97.4048 78.4452 97.2056 78.5656C96.7376 78.7496 96.1795 78.4868 95.7295 78.6883C95.2795 78.8898 95.1085 79.687 94.6945 80.1426C94.5637 80.2554 94.446 80.3817 94.3435 80.5194C94.2751 80.6587 94.2458 80.813 94.2584 80.9669C94.2711 81.1207 94.3253 81.2686 94.4155 81.3955C94.5994 81.6403 94.8211 81.856 95.0725 82.0351C95.4415 82.3417 95.8015 82.6571 96.1346 82.9901C96.3211 83.2012 96.536 83.3869 96.7736 83.542C96.8882 83.6249 97.0215 83.6801 97.1623 83.7029C97.3032 83.7258 97.4476 83.7157 97.5836 83.6735C97.7884 83.5744 97.9868 83.4632 98.1776 83.3405C98.3688 83.2601 98.5828 83.2466 98.7831 83.3025C98.9833 83.3585 99.1574 83.4803 99.2757 83.6472C99.5409 83.5005 99.8335 83.4068 100.136 83.3715C100.439 83.3363 100.746 83.3601 101.04 83.4417C101.333 83.5233 101.607 83.6609 101.845 83.8466C102.083 84.0324 102.28 84.2624 102.426 84.5233C102.75 85.1804 102.75 86.0478 103.326 86.4683C104.082 86.994 105.216 86.4683 106.026 86.8801C106.26 87.0074 106.444 87.2071 106.549 87.4476C106.653 87.6881 106.673 87.9557 106.603 88.2081C106.534 88.4604 106.381 88.6831 106.167 88.8409C105.953 88.9986 105.691 89.0825 105.423 89.0792C104.838 89.0792 104.316 88.6499 103.722 88.6499C103.641 88.884 103.623 89.1341 103.668 89.3771C103.674 89.4437 103.699 89.5072 103.74 89.5611C103.809 89.6342 103.901 89.6835 104.001 89.7013C105.369 90.113 106.872 90.1481 108.123 90.8315C108.68 91.1681 109.196 91.5649 109.662 92.0143C109.79 92.0979 109.898 92.2066 109.98 92.3333C110.062 92.46 110.117 92.602 110.139 92.7502C110.123 92.9854 110.025 93.2082 109.86 93.381L108.186 95.6853C108.047 95.9079 107.87 96.1063 107.664 96.2723C106.98 96.7541 106.035 96.4563 105.261 96.1408C105.134 96.0984 105.02 96.0262 104.928 95.9306C104.832 95.7403 104.804 95.5248 104.847 95.3173C104.937 94.0732 104.019 93.013 103.155 92.1019C102.465 91.3311 101.709 90.6188 100.896 89.9729C100.703 89.807 100.471 89.6897 100.221 89.6312C99.9727 89.6136 99.7238 89.6495 99.4917 89.7363C98.6528 89.9969 97.832 90.3101 97.0346 90.6738C96.7424 90.7973 96.4744 90.9692 96.2426 91.1819C96.1206 91.2905 96.0317 91.4298 95.9857 91.5843C95.9396 91.7389 95.9382 91.9028 95.9816 92.0581C96.0626 92.3647 96.3506 92.6889 96.1616 92.9342C96.0438 93.0465 95.8854 93.1094 95.7205 93.1094C95.4446 93.1664 95.1595 93.1664 94.8835 93.1094C94.7557 93.0636 94.6385 92.9936 94.5386 92.9036C94.4386 92.8135 94.3579 92.7052 94.301 92.5847C94.2442 92.4643 94.2123 92.3341 94.2072 92.2016C94.2021 92.0691 94.224 91.937 94.2715 91.8127C94.6675 90.9366 96.1436 91.0067 96.7106 90.2007C96.8816 89.9553 96.9086 89.5523 96.6476 89.4121C96.556 89.3662 96.4534 89.345 96.3506 89.3508C95.7808 89.3845 95.2293 89.5594 94.7485 89.859C94.621 89.9255 94.503 90.0079 94.3975 90.1043C94.2828 90.2361 94.1888 90.3837 94.1185 90.5424C93.5498 91.685 92.7615 92.711 91.7964 93.565C91.367 94.0143 90.8034 94.3208 90.1853 94.4411C89.8163 94.4411 89.5913 93.8892 89.7173 93.565C89.7893 93.3635 89.9423 93.0831 89.7173 92.978C89.6593 92.9564 89.5952 92.9564 89.5373 92.978C89.0693 93.0393 88.8262 93.5475 88.4032 93.7665C87.9802 93.9856 87.2782 93.7665 86.7021 93.8366C86.6315 93.8382 86.5627 93.8595 86.5041 93.8979C86.4624 93.9399 86.4316 93.991 86.4141 94.0469L85.9011 95.2034C85.8639 95.3265 85.7994 95.4401 85.7121 95.5363C85.5884 95.6404 85.4398 95.7126 85.2801 95.7466C84.7221 95.8955 84.128 95.8868 83.597 96.0795C83.134 96.3055 82.724 96.6222 82.3926 97.0097C82.0611 97.3971 81.8154 97.847 81.6709 98.3312C82.0012 98.5329 82.2729 98.8134 82.4604 99.1462C82.6479 99.479 82.7448 99.8529 82.742 100.232C82.7171 100.945 82.4258 101.624 81.9229 102.142C81.8302 102.257 81.7096 102.347 81.5719 102.405C81.3953 102.453 81.2086 102.453 81.0319 102.405L79.7448 102.125C79.6283 102.085 79.5014 102.085 79.3848 102.125C79.2691 102.2 79.1883 102.316 79.1598 102.449C79.0055 102.936 78.9445 103.447 78.9798 103.956C78.98 104.158 79.0393 104.355 79.1508 104.525C79.3897 104.759 79.7122 104.894 80.0509 104.902C83.345 105.282 86.6451 105.591 89.9513 105.831C90.8513 105.288 91.5804 104.692 92.5164 104.14C92.7278 104.002 92.9623 103.901 93.2094 103.842C93.5489 103.82 93.8894 103.867 94.2085 103.982C96.2606 104.508 98.4477 104.149 100.509 104.499C100.832 104.527 101.142 104.635 101.409 104.815C102.111 105.384 101.769 106.514 102.156 107.32C102.795 108.652 105.036 108.494 105.756 109.765C106.071 110.526 106.071 111.377 105.756 112.139C105.594 112.7 105.441 113.269 105.288 113.83C105.702 114.951 106.287 116.239 106.62 117.387C106.691 117.569 106.709 117.765 106.674 117.957C106.602 118.154 106.466 118.323 106.287 118.438C105.776 118.819 105.186 119.087 104.559 119.227C104.229 119.272 103.908 119.363 103.605 119.499C102.948 119.849 102.768 120.681 102.309 121.251C101.789 121.838 101.051 122.2 100.257 122.258C99.4708 122.312 98.681 122.265 97.9076 122.118L94.0015 121.549C93.5459 121.435 93.0653 121.459 92.6244 121.619C92.3175 121.782 92.0694 122.033 91.9134 122.337C91.3103 123.415 91.4454 124.72 91.2564 125.938C91.0223 127.498 90.2483 128.943 89.9873 130.503C89.7263 132.062 91.3193 133.753 91.8864 135.216C92.0798 135.628 92.1957 136.07 92.2284 136.522C92.1935 137.026 92.0623 137.519 91.8414 137.976C91.3104 139.255 90.7793 140.543 90.2573 141.822C90.1984 142.009 90.0968 142.179 89.9603 142.322C89.7928 142.452 89.5949 142.539 89.3843 142.576C88.7579 142.725 88.1196 142.822 87.4762 142.865C87.3077 142.888 87.1361 142.863 86.9812 142.795C86.8299 142.691 86.7114 142.549 86.6392 142.383C85.2417 139.854 83.4809 137.533 81.4099 135.488C80.8281 135.002 80.3536 134.406 80.0148 133.736C79.8663 133.299 79.7756 132.846 79.7448 132.386C79.5828 130.809 79.4208 129.241 79.2498 127.664C79.0788 126.087 77.1707 124.694 76.0997 123.38C75.2536 122.346 74.2996 121.277 74.1916 119.963C74.0836 118.649 75.0916 117.194 74.9476 115.766L77.1167 114.014C78.0168 113.252 79.0338 112.384 79.1958 111.21C79.2303 110.692 79.1786 110.171 79.0428 109.668L78.4488 106.777C78.0563 106.862 77.7008 107.064 77.4317 107.355L75.1726 109.353C75.056 109.441 74.9633 109.555 74.9026 109.686C74.853 109.837 74.853 109.999 74.9026 110.15C75.1906 111.149 75.9557 112.104 75.6767 113.094C75.3764 113.785 74.8343 114.35 74.1466 114.689C73.9012 114.873 73.6086 114.988 73.3006 115.022C73.0096 114.993 72.7323 114.887 72.4995 114.715C71.2944 113.934 70.2554 112.935 69.4394 111.771C69.2163 111.488 69.0429 111.172 68.9264 110.834C68.6023 109.773 69.1604 108.582 68.7914 107.539C68.6293 106.619 67.8823 105.954 68.1613 105.156Z" fill="#29D9D0"/>
<path d="M73.1833 128.681C73.3691 128.722 73.5445 128.799 73.6991 128.908C73.8538 129.016 73.9844 129.154 74.0834 129.312C74.2349 129.543 74.4401 129.737 74.6824 129.877C74.9247 130.017 75.1973 130.099 75.4784 130.118L76.8555 130.32C76.9962 130.335 77.1332 130.373 77.2605 130.433C77.384 130.508 77.4869 130.611 77.5606 130.733C77.6343 130.855 77.6764 130.993 77.6835 131.134C77.6835 131.415 77.6835 131.695 77.6835 132.011C77.7735 133.447 79.2046 134.446 79.6726 135.804C79.7143 135.901 79.7298 136.007 79.7176 136.111C79.6829 136.243 79.6075 136.363 79.5016 136.452C79.3705 136.632 79.1744 136.758 78.9526 136.803C78.8259 136.805 78.7001 136.781 78.5836 136.733L77.4675 136.356C76.9576 136.206 76.4726 135.984 76.0275 135.699C75.7397 135.49 75.4976 135.228 75.3152 134.927C75.1329 134.626 75.014 134.293 74.9654 133.947C74.9894 133.286 74.9351 132.624 74.8034 131.975C74.5607 131.502 74.2207 131.081 73.8044 130.74C73.5794 130.486 71.9143 128.55 73.1833 128.681Z" fill="#29D9D0"/>
<path d="M122.191 95.6775C122.3 95.5964 122.422 95.5314 122.551 95.4847C122.729 95.4103 122.912 95.3488 123.1 95.3007C123.346 95.2299 123.559 95.0782 123.703 94.8714C123.798 94.7345 123.924 94.6207 124.072 94.5385C124.267 94.4458 124.489 94.4214 124.7 94.4692C124.912 94.5171 125.1 94.6344 125.233 94.8013C125.279 94.8837 125.312 94.9723 125.332 95.0642C125.376 95.2453 125.403 95.4301 125.413 95.6161C125.431 95.6881 125.431 95.7632 125.413 95.8351C125.381 95.912 125.328 95.9787 125.26 96.0279C124.998 96.208 124.68 96.2946 124.36 96.2732C124.03 96.2515 123.699 96.2515 123.37 96.2732C123.301 96.2771 123.233 96.295 123.172 96.3258C123.117 96.3649 123.065 96.4089 123.019 96.4572C122.949 96.5048 122.869 96.536 122.784 96.5481C122.7 96.5603 122.614 96.5532 122.533 96.5273C122.375 96.4724 122.227 96.3957 122.092 96.2995C122.044 96.2698 122.007 96.2272 121.984 96.1768C121.974 96.1453 121.974 96.112 121.984 96.0805C122.011 95.9294 122.083 95.7893 122.191 95.6775Z" fill="#29D9D0"/>
<g opacity="0.2">
<path opacity="0.2" d="M159.012 103.186C158.683 104.897 158.211 106.579 157.599 108.215C157.086 109.888 156.357 112.105 157.158 113.664C157.516 114.267 157.785 114.916 157.959 115.592C158.04 115.923 158.051 116.268 157.99 116.604C157.93 116.94 157.8 117.26 157.608 117.545C157.149 118.15 156.357 118.422 155.808 119C154.808 120.06 155.025 121.716 154.62 123.1C154.402 123.791 154.02 124.423 153.506 124.945C152.992 125.467 152.359 125.865 151.658 126.105C151.055 126.316 150.173 126.263 150.038 125.65C149.903 125.036 150.434 124.774 150.866 124.432C151.912 123.685 152.806 122.755 153.503 121.69C153.662 121.482 153.762 121.237 153.791 120.98C153.801 120.851 153.762 120.724 153.683 120.621C153.604 120.518 153.489 120.446 153.359 120.419C152.648 120.638 152.459 121.514 152.054 122.101C151.779 122.473 151.385 122.745 150.934 122.875C150.483 123.005 150 122.986 149.561 122.82C149.402 122.738 149.233 122.676 149.057 122.636C148.846 122.614 148.632 122.632 148.427 122.688C147.013 122.886 145.668 123.409 144.503 124.213C143.675 125.009 142.958 125.908 142.37 126.885C141.772 127.868 140.803 128.585 139.67 128.883C138.698 128.921 137.725 128.824 136.781 128.593C135.591 128.473 134.391 128.698 133.334 129.242C133.944 129.856 134.387 130.609 134.623 131.432C134.858 132.255 134.879 133.122 134.684 133.955C134.558 134.481 134.333 134.981 134.252 135.515C134.21 136.358 134.249 137.203 134.369 138.038C134.419 138.46 134.363 138.888 134.207 139.285C134.05 139.682 133.797 140.036 133.469 140.316C132.686 140.868 131.398 140.789 130.975 141.639C130.822 141.937 130.831 142.287 130.705 142.594C130.495 142.952 130.184 143.244 129.81 143.436C129.435 143.629 129.012 143.713 128.59 143.681C127.746 143.606 126.894 143.714 126.097 143.996C124.936 144.6 124.657 146.055 124.09 147.211C123.759 147.876 123.298 148.472 122.731 148.964C122.047 149.559 121.183 150.059 120.886 150.9C120.815 151.398 120.676 151.884 120.472 152.345C120.085 152.932 119.203 153.108 118.897 153.739C118.805 154.038 118.745 154.347 118.717 154.658C118.6 155.068 118.38 155.443 118.076 155.749C117.773 156.055 117.396 156.282 116.98 156.411C116.146 156.656 115.276 156.762 114.406 156.726H111.706C111.193 156.726 110.572 156.674 110.347 156.218C110.275 155.985 110.295 155.735 110.403 155.516C110.511 155.297 110.7 155.126 110.932 155.035C111.397 154.861 111.879 154.734 112.372 154.658C112.914 154.503 113.405 154.21 113.794 153.81C114.183 153.41 114.456 152.917 114.586 152.381C114.634 152.033 114.7 151.688 114.784 151.347C114.963 150.892 115.192 150.457 115.468 150.05C116.144 148.848 116.376 147.456 116.125 146.107C115.999 145.406 115.729 144.723 115.666 144.005C115.638 142.971 115.825 141.943 116.215 140.982C116.311 140.755 116.342 140.507 116.305 140.264C116.181 139.984 115.978 139.744 115.72 139.571C114.316 138.354 114.991 136.286 115.648 134.569C115.9 133.903 115.45 133.193 115.072 132.58C114.694 131.967 114.379 131.134 114.856 130.591C115.042 130.425 115.264 130.301 115.505 130.229C115.746 130.156 116.001 130.136 116.251 130.171C116.97 130.189 117.683 130.31 118.366 130.53C119.266 130.81 120.166 131.248 121.012 130.95C121.676 130.601 122.24 130.095 122.65 129.478C122.867 129.171 123.176 128.935 123.534 128.802C123.893 128.668 124.285 128.645 124.657 128.734C124.954 128.848 125.206 129.093 125.557 129.119C125.741 129.106 125.919 129.05 126.076 128.955C126.233 128.861 126.363 128.73 126.457 128.576C126.652 128.259 126.924 127.995 127.249 127.805C128.005 127.472 128.932 128.199 129.688 127.866C130.01 127.661 130.296 127.406 130.534 127.113C131.342 126.562 132.313 126.285 133.298 126.324C133.815 126.296 134.318 126.149 134.765 125.894C135.213 125.64 135.592 125.286 135.872 124.861C135.759 124.419 135.69 123.967 135.665 123.512C135.691 123.315 135.761 123.127 135.87 122.959C135.979 122.792 136.125 122.65 136.296 122.543C136.468 122.436 136.661 122.367 136.863 122.341C137.065 122.314 137.27 122.331 137.465 122.39C137.599 122.428 137.718 122.505 137.807 122.609C138.14 123.021 137.654 123.608 137.735 124.125C137.816 124.642 138.635 124.94 139.256 125.001C139.616 125.035 139.98 124.987 140.318 124.861C140.68 124.678 140.989 124.41 141.218 124.081C141.716 123.508 142.13 122.872 142.451 122.189C142.607 121.845 142.688 121.474 142.688 121.098C142.688 120.723 142.607 120.351 142.451 120.007C142.282 119.673 142.001 119.404 141.654 119.244C141.308 119.085 140.916 119.045 140.543 119.131C140.237 119.219 139.904 119.412 139.643 119.254C139.382 119.096 139.445 118.483 139.328 118.08C139.148 117.449 138.221 117.335 137.627 117.633C137.083 118.014 136.569 118.433 136.088 118.886C135.672 119.12 135.283 119.396 134.927 119.709C134.666 119.999 134.468 120.402 134.081 120.472C133.694 120.542 133.271 120.104 133.253 119.674C133.284 119.243 133.437 118.828 133.694 118.474C134.693 116.722 135.557 114.777 135.116 112.841C134.981 112.32 134.798 111.812 134.567 111.325C134.141 110.086 133.364 108.989 132.326 108.162C131.895 107.93 131.486 107.663 131.101 107.365C130.758 106.954 130.573 106.44 130.579 105.91C129.694 106.133 128.765 106.133 127.879 105.91C127.498 105.838 127.15 105.648 126.889 105.367C126.733 105.155 126.645 104.901 126.637 104.64C126.619 104.195 126.756 103.757 127.025 103.398C127.295 103.038 127.682 102.778 128.122 102.66C128.59 102.546 129.184 102.564 129.454 102.169C129.539 102.038 129.584 101.886 129.584 101.731C129.584 101.576 129.539 101.424 129.454 101.293C129.269 101.029 129.01 100.822 128.707 100.697C128.08 100.396 127.364 100.315 126.682 100.47C126.343 100.55 126.027 100.703 125.758 100.919C125.488 101.134 125.272 101.406 125.125 101.714C124.855 102.301 124.846 103.054 124.333 103.466C124.149 103.595 123.934 103.676 123.709 103.702C123.484 103.728 123.256 103.698 123.046 103.615C122.629 103.447 122.254 103.193 121.948 102.87C121.736 102.704 121.563 102.495 121.442 102.258C121.321 102.02 121.254 101.76 121.246 101.495C121.28 101.296 121.358 101.107 121.474 100.94C121.591 100.774 121.743 100.634 121.921 100.531C122.272 100.321 122.642 100.145 123.028 100.005C124.128 99.5314 125.106 98.8251 125.89 97.9376C126.394 97.3681 126.79 96.7373 127.33 96.1853C127.967 95.4895 128.8 94.9901 129.724 94.7485C130.182 94.6347 130.659 94.6165 131.125 94.695C131.59 94.7735 132.033 94.947 132.425 95.204C132.575 95.3315 132.749 95.4297 132.938 95.4932C133.415 95.6071 133.838 95.169 134.198 94.8711C135.098 94.1877 137.042 93.8898 137.492 94.8711C137.753 95.4494 137.375 96.0977 137.24 96.7198C137.164 97.2511 137.225 97.7924 137.417 98.2953C137.608 98.7983 137.925 99.2473 138.338 99.6022C138.458 99.7033 138.559 99.8251 138.635 99.9614C138.824 100.435 138.248 100.838 138.005 101.284C137.881 101.506 137.84 101.762 137.888 102.009C137.936 102.257 138.07 102.481 138.267 102.644C138.465 102.806 138.714 102.897 138.973 102.902C139.232 102.907 139.484 102.824 139.688 102.669C140.462 102.09 140.246 100.794 140.975 100.172C141.479 99.7512 142.226 99.795 142.775 99.4971C143.136 99.2526 143.429 98.9242 143.627 98.5418C143.825 98.1593 143.922 97.7349 143.909 97.3068C144 96.4166 143.808 95.5207 143.36 94.7397C143.132 94.3526 142.808 94.0268 142.419 93.7913C142.029 93.5558 141.586 93.4181 141.128 93.3904C140.669 93.3904 140.228 93.5043 139.742 93.4781C139.509 93.4873 139.279 93.4222 139.087 93.2925C138.895 93.1628 138.752 92.9757 138.68 92.7596C138.65 92.569 138.665 92.3741 138.725 92.1901C138.877 91.6155 138.877 91.0125 138.725 90.4379C138.64 90.1515 138.457 89.9018 138.207 89.7299C137.956 89.5579 137.654 89.4739 137.348 89.4917C137.09 89.5522 136.858 89.6893 136.684 89.8839C136.51 90.0786 136.402 90.3212 136.376 90.5781C136.333 91.0968 136.452 91.616 136.718 92.0675C136.808 92.2159 136.869 92.3793 136.898 92.5494C136.897 92.6898 136.858 92.8276 136.785 92.949C136.713 93.0704 136.609 93.1713 136.484 93.2415C136.231 93.3781 135.952 93.4645 135.665 93.4956C135.125 93.6393 134.561 93.6769 134.007 93.6062C133.452 93.5355 132.917 93.3579 132.434 93.0838C132.241 92.9561 132.091 92.7765 132.002 92.5669C131.934 92.2798 131.913 91.9842 131.939 91.6907C131.894 90.8847 131.254 90.2188 131.038 89.4478C130.924 89.0808 130.899 88.693 130.965 88.3149C131.031 87.9368 131.186 87.5787 131.418 87.2687C131.65 86.9588 131.952 86.7055 132.302 86.5287C132.652 86.352 133.039 86.2565 133.433 86.25C134.531 86.25 135.548 86.9071 136.646 86.837C136.941 86.8321 137.227 86.7302 137.456 86.5478C137.684 86.2883 137.864 85.9918 137.987 85.6717C138.149 85.3826 138.455 85.0935 138.788 85.1548C139.121 85.2161 139.292 85.5315 139.427 85.8207C139.622 86.1861 139.767 86.5749 139.859 86.9771C140.003 87.7657 139.724 88.5892 139.859 89.3778C139.94 89.737 140.228 90.14 140.597 90.0524C140.749 90.0077 140.88 89.9113 140.966 89.7808C141.201 89.4801 141.316 89.1065 141.29 88.7294C141.29 88.1512 140.921 87.4941 141.29 87.0472C141.385 86.9623 141.497 86.8969 141.618 86.8552C141.74 86.8134 141.869 86.7961 141.998 86.8043C142.126 86.8125 142.252 86.846 142.367 86.9028C142.482 86.9596 142.584 87.0386 142.667 87.1349C143.016 87.5533 143.243 88.0557 143.324 88.5892C143.468 88.3239 143.709 88.1208 143.999 88.0197C144.101 88.0025 144.197 87.9603 144.278 87.8971C144.359 87.778 144.4 87.637 144.395 87.4941C144.447 87.2473 144.577 87.0229 144.768 86.8529C144.959 86.6829 145.2 86.5761 145.457 86.5478C145.791 86.5302 146.124 86.5883 146.431 86.7174C146.738 86.8466 147.01 87.0433 147.226 87.2922C147.441 87.541 147.594 87.8352 147.673 88.1515C147.752 88.4678 147.755 88.7976 147.68 89.1149C147.446 89.7107 146.78 90.2013 146.924 90.8234C147.076 90.7667 147.239 90.7455 147.4 90.7616C147.562 90.7776 147.717 90.8304 147.854 90.9157C147.991 91.001 148.105 91.1164 148.187 91.2525C148.269 91.3887 148.318 91.5418 148.328 91.6995C148.779 91.6915 149.221 91.5754 149.615 91.3615C150.01 91.1475 150.343 90.8423 150.587 90.4729C151.079 89.7268 151.791 89.1433 152.63 88.7995C153.215 88.6418 153.863 88.7995 154.43 88.633C155.92 90.8689 157.232 93.212 158.355 95.6421C158.454 96.2379 158.544 96.8336 158.634 97.3944C159.03 99.2991 159.157 101.247 159.012 103.186Z" fill="white"/>
<path opacity="0.2" d="M119.212 80.4075C119.4 80.2531 119.55 80.0596 119.652 79.8413C119.753 79.6229 119.803 79.3853 119.797 79.1458C119.781 78.6673 119.733 78.1903 119.653 77.7177C119.531 76.5729 119.767 75.4188 120.328 74.406C120.548 73.9637 120.891 73.5904 121.318 73.3283C121.832 73.1029 122.395 73.0066 122.956 73.0479C125.791 73.0479 128.645 73.5386 131.444 73.1005C132.256 72.9289 133.08 72.8176 133.91 72.7676C135.782 72.7676 138.302 73.9066 138.86 75.8165C138.986 76.1703 138.982 76.5557 138.849 76.907C138.716 77.2584 138.462 77.5542 138.131 77.744C136.835 78.5501 136.178 77.6038 135.116 77.0431C134.054 76.4824 132.731 76.9993 131.597 76.6401C131.357 76.5355 131.102 76.4675 130.841 76.4386C130.193 76.4386 129.806 77.2096 129.896 77.8404C130.066 78.4506 130.311 79.0388 130.625 79.5927C130.776 79.8709 130.837 80.1873 130.8 80.5C130.763 80.8128 130.63 81.1073 130.418 81.3449C130.301 81.4501 130.148 81.5377 130.103 81.6779C130.013 81.9757 130.4 82.1597 130.679 82.3087C131.032 82.5046 131.301 82.8178 131.437 83.1911C131.572 83.5644 131.565 83.9727 131.417 84.3413C131.138 84.9721 130.517 85.3664 130.166 85.9797C129.996 86.5734 129.794 87.1583 129.563 87.7319C129.257 88.0704 128.878 88.3393 128.453 88.5195C128.029 88.6997 127.568 88.7867 127.105 88.7745C127.062 89.1034 126.947 89.4196 126.769 89.7021C126.59 89.9845 126.352 90.2268 126.07 90.4129C125.73 90.5584 125.352 90.5977 124.988 90.5256C124.623 90.4534 124.291 90.2733 124.036 90.0099C123.549 89.4668 123.236 88.7967 123.136 88.0824C123.057 87.5405 122.928 87.0068 122.749 86.4878C122.469 85.9693 122.086 85.5098 121.622 85.1354C121.159 84.7611 120.624 84.4793 120.049 84.3063C119.243 84.0874 118.492 83.7085 117.844 83.1936C117.69 83.0611 117.564 82.8999 117.475 82.7193C117.385 82.5388 117.334 82.3427 117.324 82.1425C117.314 81.9424 117.345 81.7423 117.416 81.5541C117.487 81.366 117.596 81.1935 117.736 81.0471C118.141 80.7054 118.771 80.7229 119.212 80.4075Z" fill="white"/>
<path opacity="0.2" d="M68.1613 105.157C68.2566 104.958 68.3842 104.774 68.5393 104.614C68.8724 104.229 69.3404 103.808 69.8354 103.957C70.3304 104.106 70.4744 104.938 70.5104 105.551C70.5662 106.361 70.8496 107.14 71.3295 107.803L72.6525 107.584C73.3006 106.419 72.8325 104.956 72.3645 103.712L70.3934 98.5249C70.1681 97.995 70.0168 97.4381 69.9434 96.869C69.9345 96.1148 70.0719 95.3657 70.3484 94.6612C69.6185 92.4513 69.1741 90.1616 69.0254 87.8448C68.9777 87.2591 69.011 86.6697 69.1244 86.0926C69.3127 85.4107 69.5942 84.7565 69.9614 84.1476L71.0505 82.1675C71.1684 81.8988 71.3468 81.6593 71.5725 81.4666C71.7696 81.3378 71.9848 81.2374 72.2115 81.1687C73.2387 80.7746 74.1396 80.1214 74.8216 79.2762C76.1537 77.6379 76.9547 75.6666 78.7008 74.4487C80.1265 73.5563 81.6877 72.8881 83.327 72.4687C83.9863 72.2092 84.6958 72.0926 85.4061 72.127C86.0545 72.2488 86.6779 72.4738 87.2512 72.7929C88.666 73.4153 90.1988 73.7436 91.7514 73.7566C91.898 73.7376 92.0471 73.7497 92.1884 73.792C92.3298 73.8344 92.4601 73.906 92.5704 74.0019C92.66 74.1581 92.6856 74.3415 92.6422 74.5153C92.5988 74.6891 92.4896 74.8406 92.3364 74.9394C92.0484 75.1584 91.6793 75.2636 91.3733 75.4738C91.6614 76.1397 93.0294 75.9207 93.3264 76.5778C93.4164 76.7705 93.3984 77.0158 93.5514 77.1735C93.654 77.2585 93.7859 77.3023 93.9205 77.2962C94.5865 77.2962 95.0545 76.6654 95.3425 76.0784C95.5343 75.4537 95.9411 74.9122 96.4946 74.5451C96.69 74.4594 96.9043 74.4225 97.118 74.4378C97.3318 74.4531 97.5382 74.5201 97.7186 74.6327C97.8806 74.7379 98.0156 74.8781 98.1776 74.9744C98.4144 75.0846 98.6715 75.1472 98.9337 75.1584C99.7039 75.2521 100.48 75.296 101.256 75.2898C101.324 75.2715 101.395 75.2715 101.463 75.2898C101.515 75.3368 101.553 75.3977 101.571 75.4651C101.822 76.2186 102.003 76.9928 102.111 77.7781C102.122 78.4234 102.336 79.05 102.723 79.5741C102.806 79.6467 102.876 79.7326 102.93 79.8282C102.952 79.9204 102.952 80.0164 102.93 80.1086C102.886 80.3529 102.78 80.583 102.623 80.7785C102.467 80.9741 102.263 81.1291 102.03 81.23C101.229 81.563 100.275 81.23 99.4377 81.4491C99.0867 81.5542 98.7177 81.7732 98.3756 81.6331C98.2325 81.5551 98.1182 81.4353 98.0488 81.2907C97.9793 81.1461 97.9583 80.9839 97.9886 80.827C98.0628 80.5264 98.1652 80.2331 98.2946 79.9509C98.5166 79.1097 98.394 78.2174 97.9526 77.4626C97.9176 77.6883 97.8327 77.9039 97.7037 78.0945C97.5747 78.2851 97.4048 78.4462 97.2056 78.5666C96.7376 78.7506 96.1795 78.4877 95.7295 78.6892C95.2795 78.8908 95.1085 79.688 94.6945 80.1436C94.5637 80.2564 94.446 80.3827 94.3435 80.5204C94.2751 80.6596 94.2458 80.814 94.2584 80.9678C94.2711 81.1217 94.3253 81.2696 94.4155 81.3965C94.5994 81.6413 94.8211 81.857 95.0725 82.0361C95.4415 82.3427 95.8015 82.6581 96.1346 82.991C96.3211 83.2022 96.536 83.3879 96.7736 83.543C96.8882 83.6259 97.0215 83.681 97.1623 83.7039C97.3032 83.7267 97.4476 83.7167 97.5836 83.6744C97.7884 83.5753 97.9868 83.4642 98.1776 83.3415C98.3688 83.261 98.5828 83.2476 98.7831 83.3035C98.9833 83.3594 99.1574 83.4812 99.2757 83.6481C99.5409 83.5015 99.8335 83.4078 100.136 83.3725C100.439 83.3372 100.746 83.3611 101.04 83.4427C101.333 83.5242 101.607 83.6619 101.845 83.8476C102.083 84.0333 102.28 84.2634 102.426 84.5243C102.75 85.1814 102.75 86.0488 103.326 86.4693C104.082 86.995 105.216 86.4693 106.026 86.8811C106.26 87.0084 106.444 87.2081 106.549 87.4486C106.653 87.6891 106.673 87.9567 106.603 88.209C106.534 88.4614 106.381 88.6841 106.167 88.8418C105.953 88.9996 105.691 89.0835 105.423 89.0802C104.838 89.0802 104.316 88.6509 103.722 88.6509C103.641 88.885 103.623 89.1351 103.668 89.3781C103.674 89.4446 103.699 89.5082 103.74 89.562C103.809 89.6352 103.901 89.6845 104.001 89.7022C105.369 90.114 106.872 90.1491 108.123 90.8325C108.68 91.1691 109.196 91.5658 109.662 92.0152C109.79 92.0989 109.898 92.2075 109.98 92.3343C110.062 92.461 110.117 92.603 110.139 92.7512C110.123 92.9864 110.025 93.2092 109.86 93.382L108.186 95.6862C108.047 95.9088 107.87 96.1072 107.664 96.2732C106.98 96.7551 106.035 96.4572 105.261 96.1418C105.134 96.0994 105.02 96.0272 104.928 95.9315C104.832 95.7413 104.804 95.5258 104.847 95.3183C104.937 94.0741 104.019 93.014 103.155 92.1028C102.465 91.3321 101.709 90.6198 100.896 89.9738C100.703 89.808 100.471 89.6906 100.221 89.6321C99.9727 89.6146 99.7238 89.6505 99.4917 89.7373C98.6528 89.9979 97.832 90.3111 97.0346 90.6747C96.7424 90.7983 96.4744 90.9702 96.2426 91.1829C96.1206 91.2915 96.0317 91.4307 95.9857 91.5853C95.9396 91.7398 95.9382 91.9037 95.9816 92.059C96.0626 92.3657 96.3506 92.6899 96.1616 92.9352C96.0438 93.0475 95.8854 93.1104 95.7205 93.1104C95.4446 93.1674 95.1595 93.1674 94.8835 93.1104C94.7557 93.0645 94.6385 92.9946 94.5386 92.9046C94.4386 92.8145 94.3579 92.7062 94.301 92.5857C94.2442 92.4652 94.2123 92.335 94.2072 92.2026C94.2021 92.0701 94.224 91.938 94.2715 91.8137C94.6675 90.9376 96.1436 91.0077 96.7106 90.2016C96.8816 89.9563 96.9086 89.5533 96.6476 89.4131C96.556 89.3672 96.4534 89.346 96.3506 89.3518C95.7808 89.3855 95.2293 89.5604 94.7485 89.8599C94.621 89.9264 94.503 90.0089 94.3975 90.1053C94.2828 90.2371 94.1888 90.3847 94.1185 90.5433C93.5498 91.6859 92.7615 92.712 91.7964 93.566C91.367 94.0152 90.8034 94.3217 90.1853 94.4421C89.8163 94.4421 89.5913 93.8902 89.7173 93.566C89.7893 93.3645 89.9423 93.0841 89.7173 92.979C89.6593 92.9574 89.5952 92.9574 89.5373 92.979C89.0693 93.0403 88.8262 93.5485 88.4032 93.7675C87.9802 93.9865 87.2782 93.7675 86.7021 93.8376C86.6315 93.8391 86.5627 93.8604 86.5041 93.8989C86.4624 93.9409 86.4316 93.992 86.4141 94.0479L85.9011 95.2044C85.8639 95.3275 85.7994 95.4411 85.7121 95.5373C85.5884 95.6413 85.4398 95.7136 85.2801 95.7476C84.7221 95.8965 84.128 95.8877 83.597 96.0805C83.134 96.3065 82.724 96.6232 82.3926 97.0106C82.0611 97.3981 81.8154 97.848 81.6709 98.3322C82.0012 98.5339 82.2729 98.8144 82.4604 99.1472C82.6479 99.4799 82.7448 99.8539 82.742 100.233C82.7171 100.946 82.4258 101.625 81.9229 102.143C81.8302 102.258 81.7096 102.348 81.5719 102.406C81.3953 102.454 81.2086 102.454 81.0319 102.406L79.7448 102.126C79.6283 102.086 79.5014 102.086 79.3848 102.126C79.2691 102.201 79.1883 102.317 79.1598 102.45C79.0055 102.937 78.9445 103.448 78.9798 103.957C78.98 104.159 79.0393 104.356 79.1508 104.526C79.3897 104.76 79.7122 104.895 80.0509 104.903C83.345 105.283 86.6451 105.592 89.9513 105.832C90.8513 105.289 91.5804 104.693 92.5164 104.141C92.7278 104.003 92.9623 103.902 93.2094 103.843C93.5489 103.821 93.8894 103.868 94.2085 103.983C96.2606 104.509 98.4477 104.15 100.509 104.5C100.832 104.528 101.142 104.636 101.409 104.816C102.111 105.385 101.769 106.515 102.156 107.321C102.795 108.653 105.036 108.495 105.756 109.766C106.071 110.527 106.071 111.378 105.756 112.14C105.594 112.701 105.441 113.27 105.288 113.831C105.702 114.952 106.287 116.24 106.62 117.388C106.691 117.57 106.709 117.766 106.674 117.958C106.602 118.155 106.466 118.324 106.287 118.439C105.776 118.82 105.186 119.088 104.559 119.228C104.229 119.273 103.908 119.364 103.605 119.5C102.948 119.85 102.768 120.682 102.309 121.252C101.789 121.839 101.051 122.201 100.257 122.259C99.4708 122.313 98.681 122.266 97.9076 122.119L94.0015 121.55C93.5459 121.436 93.0653 121.46 92.6244 121.62C92.3175 121.783 92.0694 122.034 91.9134 122.338C91.3103 123.416 91.4454 124.721 91.2564 125.939C91.0223 127.499 90.2483 128.944 89.9873 130.504C89.7263 132.063 91.3193 133.754 91.8864 135.217C92.0798 135.629 92.1957 136.071 92.2284 136.523C92.1935 137.027 92.0623 137.52 91.8414 137.977C91.3104 139.256 90.7793 140.544 90.2573 141.823C90.1984 142.01 90.0968 142.18 89.9603 142.323C89.7928 142.453 89.5949 142.54 89.3843 142.577C88.7579 142.726 88.1196 142.823 87.4762 142.866C87.3077 142.889 87.1361 142.864 86.9812 142.796C86.8299 142.692 86.7114 142.55 86.6392 142.384C85.2417 139.855 83.4809 137.534 81.4099 135.489C80.8281 135.003 80.3536 134.407 80.0148 133.737C79.8663 133.3 79.7756 132.847 79.7448 132.387C79.5828 130.81 79.4208 129.242 79.2498 127.665C79.0788 126.088 77.1707 124.695 76.0997 123.381C75.2536 122.347 74.2996 121.278 74.1916 119.964C74.0836 118.65 75.0916 117.195 74.9476 115.767L77.1167 114.015C78.0168 113.253 79.0338 112.385 79.1958 111.211C79.2303 110.693 79.1786 110.172 79.0428 109.669L78.4488 106.778C78.0563 106.863 77.7008 107.065 77.4317 107.356L75.1726 109.354C75.056 109.442 74.9633 109.556 74.9026 109.687C74.853 109.838 74.853 110 74.9026 110.151C75.1906 111.15 75.9557 112.105 75.6767 113.095C75.3764 113.786 74.8343 114.351 74.1466 114.69C73.9012 114.874 73.6086 114.989 73.3006 115.023C73.0096 114.994 72.7323 114.888 72.4995 114.716C71.2944 113.935 70.2554 112.936 69.4394 111.772C69.2163 111.489 69.0429 111.173 68.9264 110.835C68.6023 109.774 69.1604 108.583 68.7914 107.54C68.6293 106.62 67.8823 105.955 68.1613 105.157Z" fill="white"/>
<path opacity="0.2" d="M73.1838 128.682C73.3696 128.723 73.545 128.8 73.6996 128.909C73.8542 129.017 73.9849 129.155 74.0839 129.313C74.2354 129.544 74.4405 129.738 74.6828 129.878C74.9251 130.018 75.1978 130.1 75.4789 130.119L76.856 130.321C76.9967 130.336 77.1337 130.374 77.261 130.434C77.3844 130.509 77.4874 130.612 77.5611 130.734C77.6348 130.856 77.6769 130.994 77.684 131.135C77.684 131.416 77.684 131.696 77.684 132.011C77.774 133.448 79.2051 134.447 79.6731 135.805C79.7148 135.902 79.7303 136.008 79.7181 136.112C79.6834 136.244 79.608 136.364 79.5021 136.453C79.3709 136.633 79.1749 136.759 78.9531 136.804C78.8264 136.806 78.7006 136.782 78.5841 136.734L77.468 136.357C76.9581 136.207 76.473 135.985 76.028 135.7C75.7402 135.491 75.4981 135.229 75.3157 134.928C75.1334 134.627 75.0144 134.294 74.9659 133.948C74.9899 133.287 74.9356 132.625 74.8039 131.976C74.5612 131.502 74.2211 131.082 73.8049 130.741C73.5798 130.487 71.9148 128.551 73.1838 128.682Z" fill="white"/>
<path opacity="0.2" d="M122.191 95.6775C122.3 95.5964 122.422 95.5314 122.551 95.4847C122.729 95.4103 122.912 95.3488 123.1 95.3007C123.346 95.2299 123.559 95.0782 123.703 94.8714C123.798 94.7345 123.924 94.6207 124.072 94.5385C124.267 94.4458 124.489 94.4214 124.7 94.4692C124.912 94.5171 125.1 94.6344 125.233 94.8013C125.279 94.8837 125.312 94.9723 125.332 95.0642C125.376 95.2453 125.403 95.4301 125.413 95.6161C125.431 95.6881 125.431 95.7632 125.413 95.8351C125.381 95.912 125.328 95.9787 125.26 96.0279C124.998 96.208 124.68 96.2946 124.36 96.2732C124.03 96.2515 123.699 96.2515 123.37 96.2732C123.301 96.2771 123.233 96.295 123.172 96.3258C123.117 96.3649 123.065 96.4089 123.019 96.4572C122.949 96.5048 122.868 96.536 122.784 96.5481C122.7 96.5603 122.614 96.5532 122.533 96.5273C122.375 96.4724 122.227 96.3957 122.092 96.2995C122.044 96.2698 122.006 96.2272 121.984 96.1768C121.974 96.1453 121.974 96.112 121.984 96.0805C122.011 95.9294 122.083 95.7893 122.191 95.6775Z" fill="white"/>
</g>
<path opacity="0.22" d="M153.458 100.513C153.462 94.8716 152.604 89.2613 150.911 83.8662C159.777 94.3451 164.091 107.779 162.934 121.308C161.777 134.837 155.24 147.391 144.716 156.299C134.192 165.206 120.512 169.763 106.588 168.998C92.6639 168.233 79.5967 162.208 70.1685 152.205C79.094 156.251 88.9234 158.041 98.7479 157.41C108.572 156.779 118.075 153.747 126.377 148.595C134.679 143.442 141.513 136.336 146.246 127.931C150.98 119.527 153.46 110.097 153.458 100.513Z" fill="black"/>
<path d="M178.137 38.4135C178.137 25.3328 187.542 9.39596 199.243 2.82495C205.489 -0.67958 211.105 -0.811003 215.003 1.80864L219.611 4.50713C215.795 2.54459 210.61 2.92133 204.904 6.12797C193.204 12.7077 183.753 28.6358 183.798 41.7165C183.798 48.1911 186.147 52.747 189.918 54.9111L184.698 51.8271C184.314 51.6364 183.944 51.4197 183.591 51.1788C180.198 48.8482 178.155 44.4676 178.137 38.4135Z" fill="#E0E0E0"/>
<path opacity="0.1" d="M178.137 38.4135C178.137 25.3328 187.542 9.39596 199.243 2.82495C205.489 -0.67958 211.105 -0.811003 215.003 1.80864L219.611 4.50713C215.795 2.54459 210.61 2.92133 204.904 6.12797C193.204 12.7077 183.753 28.6358 183.798 41.7165C183.798 48.1911 186.147 52.747 189.918 54.9111L184.698 51.8271C184.314 51.6364 183.944 51.4197 183.591 51.1788C180.198 48.8482 178.155 44.4676 178.137 38.4135Z" fill="black"/>
<path d="M183.798 41.7169C183.753 28.6362 193.203 12.7081 204.904 6.12833C210.61 2.92168 215.794 2.54494 219.61 4.50748C219.968 4.68687 220.314 4.88881 220.645 5.11202C224.047 7.40749 226.127 11.8057 226.145 17.9036C226.145 30.9842 216.73 46.9299 205.03 53.5009C199.116 56.8302 193.77 57.1193 189.909 54.9027C186.048 52.6861 183.816 48.1915 183.798 41.7169Z" fill="#E0E0E0"/>
<path d="M202.06 50.4346C213.112 44.2228 222.077 29.1095 222.041 16.7472C222.041 12.0424 220.664 8.38891 218.197 6.30371C218.314 6.35628 218.432 6.39132 218.549 6.45265C218.816 6.58893 219.074 6.74108 219.323 6.90824L219.44 6.97833C222.293 8.95839 223.868 12.8397 223.886 17.9212C223.886 30.2835 214.957 45.388 203.896 51.6086C201.377 53.1343 198.498 54.0033 195.535 54.1318C193.959 54.1623 192.404 53.7779 191.034 53.0192C190.603 52.7629 190.197 52.4697 189.819 52.143C191.023 52.6959 192.34 52.9774 193.671 52.9666C196.645 52.843 199.536 51.9706 202.06 50.4346Z" fill="#E0E0E0"/>
<path opacity="0.2" d="M202.06 50.4346C213.112 44.2228 222.077 29.1095 222.041 16.7472C222.041 12.0424 220.664 8.38891 218.197 6.30371C218.314 6.35628 218.432 6.39132 218.549 6.45265C218.816 6.58893 219.074 6.74108 219.323 6.90824L219.44 6.97833C222.293 8.95839 223.868 12.8397 223.886 17.9212C223.886 30.2835 214.957 45.388 203.896 51.6086C201.377 53.1343 198.498 54.0033 195.535 54.1318C193.959 54.1623 192.404 53.7779 191.034 53.0192C190.603 52.7629 190.197 52.4697 189.819 52.143C191.023 52.6959 192.34 52.9774 193.671 52.9666C196.645 52.843 199.536 51.9706 202.06 50.4346Z" fill="black"/>
<path d="M206.029 8.03814C208.549 6.50718 211.432 5.63506 214.399 5.50612C215.713 5.49624 217.013 5.76846 218.207 6.3034C220.673 8.3886 222.041 12.0421 222.05 16.7469C222.05 29.1092 213.121 44.2225 202.069 50.4343C199.553 51.966 196.672 52.8382 193.708 52.9663C192.376 52.9771 191.06 52.6956 189.855 52.1427C187.416 50.0575 186.075 46.4216 186.057 41.7167C186.021 29.3545 194.986 14.2499 206.029 8.03814Z" fill="#134159"/>
<path d="M196.183 38.1856L200.971 33.9539C201.678 33.3274 202.104 32.4561 202.159 31.527V30.8086C199.144 31.2379 196.984 29.214 196.966 25.4116C196.966 20.514 200.494 14.5388 204.877 12.0768C209.26 9.6149 212.824 11.595 212.833 16.4575C212.833 20.2599 210.709 24.7019 207.703 27.6632V28.3729C207.703 29.1877 208.198 29.6433 208.9 29.4681L213.697 28.3028C216.082 27.7333 217.892 28.9249 218.36 31.3868L218.414 31.6759C214.813 39.4648 208.828 46.5702 202.069 50.3989C199.553 51.9306 196.672 52.8029 193.708 52.9309C192.665 52.9334 191.63 52.7615 190.647 52.4228L191.547 46.4563C192.121 43.28 193.749 40.3745 196.183 38.1856Z" fill="url(#paint0_linear_1_2102)"/>
<path d="M63.9394 246.083C63.9034 232.994 73.3538 217.074 85.0543 210.494C91.3006 206.99 96.9259 206.858 100.814 209.487L105.422 212.185C101.606 210.223 96.4219 210.6 90.7156 213.806C79.0151 220.386 69.5737 236.314 69.6097 249.395C69.6097 255.869 71.9678 260.425 75.7389 262.589L70.5187 259.514C70.1375 259.315 69.7679 259.096 69.4117 258.857C66.0095 256.518 63.9574 252.137 63.9394 246.083Z" fill="#E0E0E0"/>
<path opacity="0.1" d="M63.9394 246.083C63.9034 232.994 73.3538 217.074 85.0543 210.494C91.3006 206.99 96.9259 206.858 100.814 209.487L105.422 212.185C101.606 210.223 96.4219 210.6 90.7156 213.806C79.0151 220.386 69.5737 236.314 69.6097 249.395C69.6097 255.869 71.9678 260.425 75.7389 262.589L70.5187 259.514C70.1375 259.315 69.7679 259.096 69.4117 258.857C66.0095 256.518 63.9574 252.137 63.9394 246.083Z" fill="black"/>
<path d="M69.6004 249.387C69.6004 236.306 79.0058 220.378 90.7063 213.798C96.4126 210.592 101.597 210.215 105.413 212.177C105.774 212.357 106.123 212.559 106.457 212.782C109.85 215.077 111.929 219.476 111.947 225.573C111.947 238.654 102.533 254.6 90.8324 261.171C84.9191 264.5 79.5729 264.789 75.7207 262.573C71.8685 260.356 69.6184 255.861 69.6004 249.387Z" fill="#E0E0E0"/>
<path d="M87.8719 258.104C98.9243 251.892 107.889 236.778 107.853 224.416C107.853 219.711 106.476 216.058 104.01 213.973L104.361 214.122C104.63 214.26 104.891 214.412 105.144 214.577L105.252 214.647C108.105 216.627 109.68 220.509 109.698 225.59C109.698 237.952 100.769 253.066 89.7169 259.278C87.1973 260.801 84.3185 261.669 81.3556 261.801C79.78 261.831 78.2253 261.446 76.8554 260.688C76.4239 260.433 76.0172 260.139 75.6403 259.812C76.8445 260.365 78.1612 260.646 79.4925 260.636C82.4635 260.51 85.3504 259.638 87.8719 258.104Z" fill="#E0E0E0"/>
<path opacity="0.2" d="M87.8719 258.104C98.9243 251.892 107.889 236.778 107.853 224.416C107.853 219.711 106.476 216.058 104.01 213.973L104.361 214.122C104.63 214.26 104.891 214.412 105.144 214.577L105.252 214.647C108.105 216.627 109.68 220.509 109.698 225.59C109.698 237.952 100.769 253.066 89.7169 259.278C87.1973 260.801 84.3185 261.669 81.3556 261.801C79.78 261.831 78.2253 261.446 76.8554 260.688C76.4239 260.433 76.0172 260.139 75.6403 259.812C76.8445 260.365 78.1612 260.646 79.4925 260.636C82.4635 260.51 85.3504 259.638 87.8719 258.104Z" fill="black"/>
<path d="M91.8409 215.708C94.3571 214.176 97.2374 213.304 100.202 213.176C101.516 213.165 102.816 213.438 104.009 213.973C106.475 216.059 107.844 219.712 107.853 224.417C107.853 236.779 98.9242 251.892 87.8717 258.104C85.3555 259.636 82.4751 260.508 79.5103 260.636C78.179 260.647 76.8623 260.366 75.6581 259.813C73.219 257.727 71.878 254.092 71.86 249.387C71.824 237.024 80.7884 221.92 91.8409 215.708Z" fill="#134159"/>
<path d="M81.9858 245.857L86.783 241.625C87.4843 240.995 87.907 240.125 87.9621 239.198V238.488C84.947 238.909 82.7869 236.885 82.7779 233.082C82.7779 228.185 86.306 222.21 90.6802 219.748C95.0544 217.286 98.6275 219.266 98.6365 224.128C98.6365 227.931 96.5125 232.373 93.5063 235.334V236.044C93.5063 236.859 94.0013 237.314 94.7034 237.139L99.5096 235.974C101.886 235.404 103.695 236.596 104.163 239.066L104.217 239.347C100.617 247.136 94.6404 254.241 87.8721 258.07C85.3559 259.602 82.4755 260.474 79.5107 260.602C78.4683 260.604 77.4332 260.432 76.4506 260.094L77.3506 254.127C77.9282 250.952 79.5558 248.048 81.9858 245.857Z" fill="url(#paint1_linear_1_2102)"/>
<path d="M0.856449 211.178C0.856449 199.665 9.1368 185.638 19.4332 179.856C24.9325 176.763 29.8827 176.649 33.3029 178.98L37.353 181.302C33.9959 179.549 29.4327 179.909 24.4105 182.73C14.114 188.512 5.79766 202.539 5.82466 214.051C5.82466 219.746 7.90375 223.759 11.2249 225.669L6.63469 222.962C6.29752 222.794 5.97274 222.604 5.66265 222.392H5.61764C2.67451 220.36 0.874451 216.505 0.856449 211.178Z" fill="#E0E0E0"/>
<path opacity="0.1" d="M0.856449 211.178C0.856449 199.665 9.1368 185.638 19.4332 179.856C24.9325 176.763 29.8827 176.649 33.3029 178.98L37.353 181.302C33.9959 179.549 29.4327 179.909 24.4105 182.73C14.114 188.512 5.79766 202.539 5.82466 214.051C5.82466 219.746 7.90375 223.759 11.2249 225.669L6.63469 222.962C6.29752 222.794 5.97274 222.604 5.66265 222.392H5.61764C2.67451 220.36 0.874451 216.505 0.856449 211.178Z" fill="black"/>
<path d="M5.85173 214.087C5.85173 202.575 14.1411 188.548 24.4375 182.766C29.4597 179.945 34.023 179.603 37.3801 181.338C37.6899 181.496 37.9904 181.672 38.2801 181.863C41.2683 183.887 43.0953 187.76 43.1133 193.122C43.1133 204.643 34.824 218.678 24.5275 224.461C19.3253 227.387 14.6271 227.641 11.225 225.696C7.82281 223.751 5.85173 219.782 5.85173 214.087Z" fill="#E0E0E0"/>
<path d="M21.926 221.762C31.6554 216.295 39.5397 202.995 39.5127 192.113C39.5127 187.969 38.2977 184.754 36.1286 182.914C36.2276 182.958 36.3356 182.993 36.4346 183.045C36.6708 183.166 36.8992 183.301 37.1186 183.449L37.2176 183.51C39.7287 185.262 41.1148 188.67 41.1328 193.147C41.1328 204.029 33.2755 217.329 23.537 222.804C21.3239 224.151 18.7909 224.917 16.1837 225.03C14.8017 225.055 13.4388 224.712 12.2416 224.04C11.8604 223.82 11.5017 223.564 11.1705 223.278C12.2324 223.76 13.3917 224.006 14.5636 223.996C17.1743 223.88 19.7101 223.111 21.926 221.762Z" fill="#E0E0E0"/>
<path opacity="0.2" d="M21.926 221.762C31.6554 216.295 39.5397 202.995 39.5127 192.113C39.5127 187.969 38.2977 184.754 36.1286 182.914C36.2276 182.958 36.3356 182.993 36.4346 183.045C36.6708 183.166 36.8992 183.301 37.1186 183.449L37.2176 183.51C39.7287 185.262 41.1148 188.67 41.1328 193.147C41.1328 204.029 33.2755 217.329 23.537 222.804C21.3239 224.151 18.7909 224.917 16.1837 225.03C14.8017 225.055 13.4388 224.712 12.2416 224.04C11.8604 223.82 11.5017 223.564 11.1705 223.278C12.2324 223.76 13.3917 224.006 14.5636 223.996C17.1743 223.88 19.7101 223.111 21.926 221.762Z" fill="black"/>
<path d="M25.4095 184.447C27.624 183.096 30.1606 182.326 32.7718 182.213C33.9302 182.204 35.0765 182.443 36.129 182.914C38.2981 184.754 39.5041 187.969 39.5131 192.113C39.5131 202.995 31.6558 216.295 21.9263 221.762C19.7096 223.107 17.1739 223.874 14.564 223.987C13.3921 223.997 12.2327 223.752 11.1709 223.269C9.0198 221.429 7.84076 218.231 7.83176 214.087C7.79576 203.205 15.6891 189.914 25.4095 184.447Z" fill="#134159"/>
<path d="M16.7418 210.986L20.963 207.253C21.5851 206.702 21.9574 205.933 21.998 205.116V204.494C19.3429 204.87 17.4438 203.083 17.4348 199.736C17.4348 195.426 20.54 190.16 24.3922 187.996C28.2443 185.832 31.3855 187.575 31.4035 191.886C31.4035 195.233 29.5314 199.14 26.9033 201.742V202.373C26.9033 203.092 27.3353 203.486 27.9563 203.337L32.1595 202.33C34.2566 201.83 35.8497 202.873 36.2637 205.046V205.291C33.0865 212.151 27.8303 218.433 21.863 221.78C19.6463 223.125 17.1105 223.892 14.5007 224.005C13.5809 224.009 12.6673 223.858 11.8006 223.558L12.6016 218.301C13.1182 215.486 14.5733 212.915 16.7418 210.986Z" fill="url(#paint2_linear_1_2102)"/>
<path d="M95.855 48.7335C95.855 38.5966 103.145 26.2606 112.2 21.1703C117.042 18.4543 121.389 18.3492 124.404 20.3818L128.004 22.467C125.043 20.9513 121.029 21.2492 116.61 23.7286C107.555 28.819 100.238 41.1549 100.265 51.2918C100.265 56.3033 102.065 59.8341 105.008 61.5075L100.967 59.1244C100.67 58.9667 100.382 58.8002 100.067 58.6163C97.4391 56.8114 95.855 53.3857 95.855 48.7335Z" fill="#E0E0E0"/>
<path opacity="0.1" d="M95.855 48.7335C95.855 38.5966 103.145 26.2606 112.2 21.1703C117.042 18.4543 121.389 18.3492 124.404 20.3818L128.004 22.467C125.043 20.9513 121.029 21.2492 116.61 23.7286C107.555 28.819 100.238 41.1549 100.265 51.2918C100.265 56.3033 102.065 59.8341 105.008 61.5075L100.967 59.1244C100.67 58.9667 100.382 58.8002 100.067 58.6163C97.4391 56.8114 95.855 53.3857 95.855 48.7335Z" fill="black"/>
<path d="M100.221 51.2926C100.221 41.1557 107.511 28.8197 116.565 23.7294C120.985 21.2499 124.999 20.952 127.96 22.4678C128.236 22.6099 128.504 22.7679 128.761 22.9409C131.398 24.6931 133.009 28.1188 133.018 32.8412C133.018 42.978 125.728 55.3228 116.664 60.4219C112.083 62.9889 107.943 63.2167 104.964 61.4995C101.985 59.7823 100.239 56.304 100.221 51.2926Z" fill="#E0E0E0"/>
<path d="M114.369 58.0383C122.938 53.2283 129.877 41.5232 129.85 31.9558C129.85 28.3111 128.779 25.4724 126.871 23.8604C126.961 23.8604 127.051 23.9304 127.141 23.983C127.348 24.0865 127.549 24.2005 127.744 24.3247L127.834 24.386C130.039 25.9193 131.263 28.9244 131.272 32.8582C131.272 42.4344 124.36 54.1395 115.8 58.9495C113.849 60.1321 111.617 60.805 109.32 60.9033C108.105 60.9193 106.908 60.6167 105.855 60.0271C105.533 59.8312 105.232 59.6052 104.955 59.3525C105.886 59.7789 106.905 59.9945 107.934 59.9833C110.215 59.8849 112.432 59.215 114.369 58.0383Z" fill="#E0E0E0"/>
<path opacity="0.2" d="M114.369 58.0383C122.938 53.2283 129.877 41.5232 129.85 31.9558C129.85 28.3111 128.779 25.4724 126.871 23.8604C126.961 23.8604 127.051 23.9304 127.141 23.983C127.348 24.0865 127.549 24.2005 127.744 24.3247L127.834 24.386C130.039 25.9193 131.263 28.9244 131.272 32.8582C131.272 42.4344 124.36 54.1395 115.8 58.9495C113.849 60.1321 111.617 60.805 109.32 60.9033C108.105 60.9193 106.908 60.6167 105.855 60.0271C105.533 59.8312 105.232 59.6052 104.955 59.3525C105.886 59.7789 106.905 59.9945 107.934 59.9833C110.215 59.8849 112.432 59.215 114.369 58.0383Z" fill="black"/>
<path d="M117.456 25.21C119.402 24.0214 121.632 23.3451 123.928 23.2475C124.946 23.2368 125.954 23.4463 126.88 23.8608C128.788 25.4728 129.85 28.3115 129.859 31.9562C129.859 41.5236 122.947 53.2288 114.378 58.0387C112.432 59.2273 110.202 59.9036 107.907 60.0013C106.878 60.0124 105.859 59.7968 104.928 59.3704C103.029 57.7496 101.994 54.9372 101.985 51.2837C101.949 41.7164 108.888 30.02 117.456 25.21Z" fill="#134159"/>
<path d="M109.815 48.5587L113.523 45.282C114.061 44.7905 114.384 44.1157 114.423 43.3983V42.8726C112.092 43.2055 110.418 41.6285 110.409 38.6847C110.522 36.6166 111.135 34.6037 112.198 32.8102C113.262 31.0166 114.746 29.4931 116.529 28.3638C119.922 26.4539 122.686 27.9871 122.695 31.7807C122.516 35.0515 121.099 38.1418 118.716 40.4545V41.0152C118.716 41.6373 119.103 41.9877 119.616 41.8913L123.343 41.0152C125.188 40.5771 126.583 41.4971 126.943 43.407L126.988 43.6261C124.189 49.6626 119.562 55.1823 114.324 58.1261C112.378 59.3147 110.148 59.9909 107.853 60.0886C107.043 60.0919 106.24 59.9585 105.477 59.6944L106.188 55.0771C106.616 52.5714 107.893 50.277 109.815 48.5587Z" fill="url(#paint3_linear_1_2102)"/>
<path d="M10.0447 138.898C10.0447 128.761 17.335 116.425 26.3984 111.334C31.2316 108.61 35.5878 108.513 38.603 110.546L42.2031 112.631C39.251 111.115 35.2368 111.404 30.8176 113.893C21.7542 118.983 14.4369 131.319 14.4639 141.456C14.4639 146.467 16.264 149.998 19.2161 151.672L15.1749 149.289C14.8787 149.141 14.5931 148.974 14.3199 148.789C11.6468 146.976 10.0627 143.629 10.0447 138.898Z" fill="#E0E0E0"/>
<path opacity="0.1" d="M10.0447 138.898C10.0447 128.761 17.335 116.425 26.3984 111.334C31.2316 108.61 35.5878 108.513 38.603 110.546L42.2031 112.631C39.251 111.115 35.2368 111.404 30.8176 113.893C21.7542 118.983 14.4369 131.319 14.4639 141.456C14.4639 146.467 16.264 149.998 19.2161 151.672L15.1749 149.289C14.8787 149.141 14.5931 148.974 14.3199 148.789C11.6468 146.976 10.0627 143.629 10.0447 138.898Z" fill="black"/>
<path d="M14.4291 141.455C14.4291 131.318 21.7195 118.982 30.7829 113.892C35.202 111.404 39.2162 111.115 42.1683 112.63C42.4484 112.771 42.719 112.929 42.9784 113.104C45.6065 114.856 47.2176 118.29 47.2266 123.013C47.2266 133.15 39.9362 145.494 30.8728 150.585C26.3006 153.16 22.1515 153.388 19.1723 151.671C16.1932 149.954 14.4471 146.467 14.4291 141.455Z" fill="#E0E0E0"/>
<path d="M28.5865 148.201C37.1459 143.391 44.0852 131.686 44.0582 122.11C44.0582 118.465 42.9872 115.636 41.0791 114.023L41.3581 114.137C41.566 114.242 41.7674 114.359 41.9611 114.488L42.0421 114.549C44.2562 116.082 45.4713 119.087 45.4893 123.021C45.4893 132.597 38.5679 144.294 30.0086 149.113C28.0602 150.295 25.8312 150.968 23.5373 151.066C22.3191 151.086 21.1183 150.783 20.0632 150.19C19.7429 149.992 19.4416 149.766 19.1631 149.516C20.0942 149.944 21.1125 150.162 22.1422 150.155C24.4265 150.05 26.645 149.378 28.5865 148.201Z" fill="#E0E0E0"/>
<path opacity="0.2" d="M28.5865 148.201C37.1459 143.391 44.0852 131.686 44.0582 122.11C44.0582 118.465 42.9872 115.636 41.0791 114.023L41.3581 114.137C41.566 114.242 41.7674 114.359 41.9611 114.488L42.0421 114.549C44.2562 116.082 45.4713 119.087 45.4893 123.021C45.4893 132.597 38.5679 144.294 30.0086 149.113C28.0602 150.295 25.8312 150.968 23.5373 151.066C22.3191 151.086 21.1183 150.783 20.0632 150.19C19.7429 149.992 19.4416 149.766 19.1631 149.516C20.0942 149.944 21.1125 150.162 22.1422 150.155C24.4265 150.05 26.645 149.378 28.5865 148.201Z" fill="black"/>
<path d="M31.6561 115.364C33.6072 114.181 35.8394 113.508 38.1363 113.411C39.1519 113.4 40.1573 113.61 41.0795 114.024C42.9875 115.636 44.0496 118.466 44.0586 122.111C44.0586 131.687 37.1463 143.392 28.5869 148.202C26.6357 149.387 24.404 150.063 22.1066 150.164C21.0768 150.172 20.0586 149.953 19.1275 149.525C17.2374 147.913 16.1934 145.092 16.1844 141.447C16.1574 131.879 23.0967 120.174 31.6561 115.364Z" fill="#134159"/>
<path d="M24.023 138.722L27.7401 135.436C28.2794 134.949 28.6023 134.277 28.6402 133.561V133.009C26.3091 133.334 24.635 131.765 24.626 128.822C24.7372 126.752 25.3497 124.737 26.4133 122.942C27.477 121.147 28.9617 119.622 30.7463 118.492C34.1484 116.582 36.9025 118.124 36.9115 121.918C36.7367 125.187 35.3224 128.278 32.9424 130.591V131.143C32.9424 131.774 33.3204 132.125 33.8424 132.019L37.5596 131.143C39.4047 130.696 40.7997 131.625 41.1597 133.535V133.754C38.3606 139.791 33.7434 145.31 28.5052 148.254C26.554 149.439 24.3223 150.115 22.0249 150.217C21.2183 150.22 20.4173 150.087 19.6578 149.822L20.3598 145.205C20.8056 142.707 22.0947 140.426 24.023 138.722Z" fill="url(#paint4_linear_1_2102)"/>
<path d="M145.96 205.395C145.96 195.267 153.251 182.922 162.305 177.832C167.138 175.116 171.495 175.011 174.51 177.052L178.11 179.137C175.149 177.613 171.135 177.911 166.715 180.39C157.652 185.489 150.335 197.825 150.371 207.953C150.371 212.965 152.171 216.496 155.114 218.178L151.073 215.795C150.76 215.647 150.46 215.477 150.173 215.287C147.563 213.473 145.969 210.082 145.96 205.395Z" fill="#E0E0E0"/>
<path opacity="0.1" d="M145.96 205.395C145.96 195.267 153.251 182.922 162.305 177.832C167.138 175.116 171.495 175.011 174.51 177.052L178.11 179.137C175.149 177.613 171.135 177.911 166.715 180.39C157.652 185.489 150.335 197.825 150.371 207.953C150.371 212.965 152.171 216.496 155.114 218.178L151.073 215.795C150.76 215.647 150.46 215.477 150.173 215.287C147.563 213.473 145.969 210.082 145.96 205.395Z" fill="black"/>
<path d="M150.344 207.954C150.344 197.826 157.625 185.49 166.688 180.391C171.108 177.911 175.122 177.613 178.083 179.138C178.361 179.274 178.629 179.429 178.884 179.602C181.512 181.354 183.123 184.789 183.141 189.511C183.141 199.639 175.842 211.993 166.787 217.083C162.206 219.659 158.066 219.878 155.087 218.169C152.108 216.461 150.353 212.965 150.344 207.954Z" fill="#E0E0E0"/>
<path d="M164.492 214.71C173.06 209.9 179.999 198.195 179.972 188.619C179.972 184.974 178.901 182.144 176.993 180.523L177.263 180.646C177.472 180.749 177.674 180.866 177.866 180.997L177.956 181.058C180.161 182.582 181.386 185.588 181.395 189.521C181.395 199.097 174.482 210.803 165.923 215.613C163.973 216.8 161.741 217.477 159.443 217.575C158.227 217.595 157.029 217.292 155.977 216.699C155.642 216.503 155.325 216.277 155.032 216.024C155.967 216.45 156.989 216.665 158.021 216.655C160.314 216.56 162.543 215.89 164.492 214.71Z" fill="#E0E0E0"/>
<path opacity="0.2" d="M164.492 214.71C173.06 209.9 179.999 198.195 179.972 188.619C179.972 184.974 178.901 182.144 176.993 180.523L177.263 180.646C177.472 180.749 177.674 180.866 177.866 180.997L177.956 181.058C180.161 182.582 181.386 185.588 181.395 189.521C181.395 199.097 174.482 210.803 165.923 215.613C163.973 216.8 161.741 217.477 159.443 217.575C158.227 217.595 157.029 217.292 155.977 216.699C155.642 216.503 155.325 216.277 155.032 216.024C155.967 216.45 156.989 216.665 158.021 216.655C160.314 216.56 162.543 215.89 164.492 214.71Z" fill="black"/>
<path d="M167.562 181.872C169.513 180.688 171.745 180.012 174.042 179.909C175.06 179.903 176.067 180.112 176.994 180.523C178.902 182.143 179.964 184.973 179.973 188.618C179.973 198.194 173.061 209.899 164.492 214.709C162.544 215.892 160.315 216.565 158.021 216.663C156.989 216.673 155.968 216.458 155.033 216.032C153.143 214.411 152.108 211.599 152.09 207.954C152.063 198.378 159.002 186.682 167.562 181.872Z" fill="#134159"/>
<path d="M159.938 205.221L163.646 201.944C164.186 201.454 164.509 200.778 164.547 200.06V199.508C162.206 199.841 160.532 198.273 160.523 195.32C160.637 193.252 161.251 191.238 162.317 189.445C163.382 187.651 164.868 186.128 166.653 185C170.046 183.09 172.809 184.623 172.818 188.416C172.638 191.689 171.221 194.782 168.84 197.099V197.651C168.84 198.282 169.218 198.632 169.74 198.527L173.457 197.651C175.257 197.204 176.706 198.124 177.057 200.034L177.102 200.253C174.303 206.29 169.677 211.818 164.439 214.762C162.49 215.944 160.261 216.617 157.967 216.716C157.158 216.722 156.354 216.591 155.591 216.33L156.302 211.704C156.741 209.21 158.02 206.929 159.938 205.221Z" fill="url(#paint5_linear_1_2102)"/>
<path d="M189.819 130.276C189.819 120.148 197.101 107.812 206.164 102.713C210.997 99.9972 215.353 99.9008 218.369 101.933L221.969 104.019C219.008 102.494 214.993 102.792 210.574 105.28C201.511 110.371 194.194 122.707 194.221 132.843C194.221 137.855 196.021 141.386 198.973 143.059L194.923 140.676C194.628 140.526 194.342 140.36 194.068 140.177C191.412 138.372 189.828 134.972 189.819 130.276Z" fill="#E0E0E0"/>
<path opacity="0.1" d="M189.819 130.276C189.819 120.148 197.101 107.812 206.164 102.713C210.997 99.9972 215.353 99.9008 218.369 101.933L221.969 104.019C219.008 102.494 214.993 102.792 210.574 105.28C201.511 110.371 194.194 122.707 194.221 132.843C194.221 137.855 196.021 141.386 198.973 143.059L194.923 140.676C194.628 140.526 194.342 140.36 194.068 140.177C191.412 138.372 189.828 134.972 189.819 130.276Z" fill="black"/>
<path d="M194.194 132.844C194.194 122.707 201.484 110.371 210.547 105.281C214.966 102.792 218.981 102.495 221.942 104.019C222.212 104.159 222.482 104.317 222.743 104.483C225.371 106.236 226.982 109.67 227 114.392C227 124.529 219.701 136.874 210.646 141.964C206.065 144.54 201.916 144.759 198.946 143.051C195.976 141.342 194.212 137.855 194.194 132.844Z" fill="#E0E0E0"/>
<path d="M208.36 139.589C216.92 134.779 223.868 123.074 223.841 113.498C223.841 109.853 222.77 107.023 220.853 105.411L221.132 105.525C221.34 105.63 221.541 105.747 221.735 105.875L221.816 105.937C224.03 107.47 225.254 110.466 225.263 114.409C225.263 123.976 218.351 135.682 209.783 140.5C207.834 141.683 205.605 142.356 203.311 142.454C202.096 142.474 200.898 142.171 199.846 141.578C199.509 141.384 199.192 141.158 198.901 140.903C199.835 141.331 200.857 141.55 201.889 141.543C204.183 141.443 206.412 140.771 208.36 139.589Z" fill="#E0E0E0"/>
<path opacity="0.2" d="M208.36 139.589C216.92 134.779 223.868 123.074 223.841 113.498C223.841 109.853 222.77 107.023 220.853 105.411L221.132 105.525C221.34 105.63 221.541 105.747 221.735 105.875L221.816 105.937C224.03 107.47 225.254 110.466 225.263 114.409C225.263 123.976 218.351 135.682 209.783 140.5C207.834 141.683 205.605 142.356 203.311 142.454C202.096 142.474 200.898 142.171 199.846 141.578C199.509 141.384 199.192 141.158 198.901 140.903C199.835 141.331 200.857 141.55 201.889 141.543C204.183 141.443 206.412 140.771 208.36 139.589Z" fill="black"/>
<path d="M211.42 106.752C213.372 105.57 215.604 104.897 217.901 104.798C218.917 104.787 219.922 104.996 220.844 105.412C222.761 107.024 223.814 109.854 223.832 113.498C223.832 123.074 216.911 134.78 208.351 139.59C206.403 140.774 204.175 141.45 201.88 141.552C200.847 141.559 199.826 141.341 198.892 140.913C197.002 139.292 195.958 136.479 195.949 132.835C195.922 123.267 202.861 111.562 211.42 106.752Z" fill="#134159"/>
<path d="M203.788 130.101L207.46 126.824C208 126.337 208.323 125.665 208.36 124.949V124.397C206.02 124.722 204.346 123.153 204.337 120.209C204.45 118.139 205.063 116.124 206.129 114.329C207.194 112.533 208.68 111.009 210.467 109.88C213.86 107.97 216.614 109.512 216.632 113.297C216.449 116.569 215.033 119.661 212.654 121.979V122.531C212.654 123.162 213.032 123.512 213.554 123.407L217.271 122.531C219.116 122.084 220.511 123.013 220.871 124.923L220.916 125.142C218.108 131.179 213.491 136.698 208.252 139.642C206.304 140.827 204.076 141.503 201.781 141.605C200.972 141.608 200.168 141.474 199.405 141.21L200.107 136.584C200.562 134.086 201.857 131.805 203.788 130.101Z" fill="url(#paint6_linear_1_2102)"/>
<path d="M1.7743 64.6018C1.7743 52.2308 10.6757 37.17 21.7372 30.9582C27.6414 27.6377 32.9517 27.515 36.6328 29.9945L40.953 32.544C37.3528 30.6866 32.4386 31.0459 27.0384 34.0773C15.9769 40.2978 7.04852 55.3586 7.08453 67.7296C7.08453 73.8625 9.30762 78.1556 12.8808 80.2057L7.94855 77.2969C7.58734 77.1146 7.23862 76.9097 6.90453 76.6837C3.7274 74.467 1.7923 70.3317 1.7743 64.6018Z" fill="#E0E0E0"/>
<path opacity="0.1" d="M1.7743 64.6018C1.7743 52.2308 10.6757 37.17 21.7372 30.9582C27.6414 27.6377 32.9517 27.515 36.6328 29.9945L40.953 32.544C37.3528 30.6866 32.4386 31.0459 27.0384 34.0773C15.9769 40.2978 7.04852 55.3586 7.08453 67.7296C7.08453 73.8625 9.30762 78.1556 12.8808 80.2057L7.94855 77.2969C7.58734 77.1146 7.23862 76.9097 6.90453 76.6837C3.7274 74.467 1.7923 70.3317 1.7743 64.6018Z" fill="black"/>
<path d="M7.12909 67.7285C7.12909 55.3575 16.0215 40.2968 27.0829 34.0762C32.4832 31.0448 37.3794 30.6856 40.9975 32.543C41.3346 32.7159 41.6621 32.906 41.9786 33.1125C45.1917 35.2853 47.1538 39.4469 47.1718 45.2119C47.2528 57.5917 38.2524 72.6612 27.2179 78.8817C21.6287 82.0183 16.5705 82.2986 12.9253 80.2047C9.28016 78.1107 7.14709 73.844 7.12909 67.7285Z" fill="#E0E0E0"/>
<path d="M24.4101 75.9734C34.8596 70.0946 43.311 55.8223 43.311 44.1172C43.311 39.6664 42.0059 36.232 39.7108 34.2432L40.0438 34.3833C40.2958 34.5148 40.5388 34.6549 40.7819 34.8127L40.8809 34.8827C43.581 36.7489 45.075 40.4199 45.084 45.2211C45.084 56.9175 36.6417 71.1985 26.1832 77.0773C23.8037 78.5216 21.0822 79.3454 18.2809 79.4692C16.7955 79.4945 15.3307 79.1282 14.0417 78.4091C13.6363 78.1682 13.2537 77.8926 12.8986 77.5855C14.023 78.1061 15.2537 78.3727 16.4988 78.3652C19.303 78.2418 22.0274 77.4181 24.4101 75.9734Z" fill="#E0E0E0"/>
<path opacity="0.2" d="M24.4101 75.9734C34.8596 70.0946 43.311 55.8223 43.311 44.1172C43.311 39.6664 42.0059 36.232 39.7108 34.2432L40.0438 34.3833C40.2958 34.5148 40.5388 34.6549 40.7819 34.8127L40.8809 34.8827C43.581 36.7489 45.075 40.4199 45.084 45.2211C45.084 56.9175 36.6417 71.1985 26.1832 77.0773C23.8037 78.5216 21.0822 79.3454 18.2809 79.4692C16.7955 79.4945 15.3307 79.1282 14.0417 78.4091C13.6363 78.1682 13.2537 77.8926 12.8986 77.5855C14.023 78.1061 15.2537 78.3727 16.4988 78.3652C19.303 78.2418 22.0274 77.4181 24.4101 75.9734Z" fill="black"/>
<path d="M28.154 35.8639C30.5367 34.4192 33.2611 33.5955 36.0653 33.472C37.3078 33.4611 38.5374 33.7184 39.6655 34.2255C41.9966 36.1968 43.2656 39.6488 43.2656 44.0995C43.2656 55.7871 34.8233 70.0769 24.3648 75.9557C21.9821 77.4004 19.2577 78.2241 16.4534 78.3476C15.2084 78.355 13.9777 78.0885 12.8533 77.5678C10.5402 75.5965 9.25314 72.1621 9.25314 67.7026C9.23513 56.0149 17.7045 41.7515 28.154 35.8639Z" fill="#134159"/>
<path d="M18.8388 64.3907L23.339 60.3868C24.004 59.7924 24.4044 58.9688 24.4551 58.0913V57.4167C21.6019 57.8198 19.5588 55.901 19.5498 52.3089C19.5498 47.6741 22.889 42.0231 27.0291 39.7013C31.1693 37.3795 34.5355 39.2457 34.5535 43.8717C34.5535 47.4726 32.5464 51.6693 29.7023 54.4729V55.1388C29.7023 55.9098 30.1613 56.3303 30.8273 56.1639L35.3275 55.0687C37.5776 54.5255 39.2877 55.6557 39.7287 57.9862L39.7827 58.2578C36.3626 65.6261 30.7193 72.3636 24.329 75.9645C21.9463 77.4092 19.2219 78.2328 16.4177 78.3563C15.4334 78.3583 14.4561 78.1953 13.5286 77.8744L14.3836 72.2321C14.9474 69.2143 16.5124 66.4597 18.8388 64.3907Z" fill="url(#paint7_linear_1_2102)"/>
<path d="M70.8432 214.044C70.9909 214.043 71.1362 214.007 71.2662 213.938C71.4696 213.827 71.6208 213.644 71.6879 213.427C71.7551 213.209 71.733 212.975 71.6262 212.773L38.1448 152.495C38.1033 152.374 38.0348 152.262 37.9444 152.169C37.8539 152.076 37.7436 152.004 37.6212 151.957C37.4988 151.91 37.3673 151.889 37.236 151.897C37.1046 151.905 36.9767 151.941 36.861 152.002C36.7454 152.063 36.645 152.148 36.5668 152.251C36.4886 152.354 36.4346 152.473 36.4085 152.598C36.3825 152.724 36.385 152.853 36.416 152.978C36.4469 153.102 36.5055 153.219 36.5877 153.319L70.0602 213.588C70.1371 213.725 70.2503 213.839 70.388 213.919C70.5257 214 70.6828 214.042 70.8432 214.044Z" fill="url(#paint8_linear_1_2102)"/>
<path d="M64.8488 226.572C65.045 226.562 65.2326 226.489 65.3826 226.366C65.5327 226.242 65.6372 226.074 65.68 225.888C65.7228 225.701 65.7018 225.506 65.6199 225.332C65.5381 225.158 65.4 225.015 65.2268 224.924L41.2588 214.043C41.1508 213.971 41.0282 213.923 40.8993 213.902C40.7704 213.882 40.6384 213.888 40.5124 213.922C40.3865 213.956 40.2696 214.016 40.1699 214.098C40.0702 214.18 39.9902 214.283 39.9352 214.398C39.8802 214.514 39.8517 214.639 39.8517 214.766C39.8516 214.894 39.88 215.019 39.9349 215.135C39.9897 215.25 40.0698 215.353 40.1694 215.435C40.269 215.517 40.3858 215.577 40.5118 215.611L64.4798 226.493C64.5957 226.544 64.7214 226.571 64.8488 226.572Z" fill="url(#paint9_linear_1_2102)"/>
<path d="M18.029 175.327C18.2572 175.327 18.4771 175.244 18.6442 175.092C18.8113 174.941 18.9131 174.734 18.9291 174.512L20.0181 156.911C20.0188 156.69 19.934 156.477 19.7805 156.315C19.6269 156.152 19.4161 156.052 19.1901 156.034C18.9557 156.022 18.7257 156.1 18.5492 156.25C18.3726 156.401 18.2635 156.613 18.245 156.84L17.156 174.442C17.1435 174.67 17.2231 174.894 17.3778 175.066C17.5325 175.238 17.7501 175.344 17.9841 175.362L18.029 175.327Z" fill="url(#paint10_linear_1_2102)"/>
<path d="M27.1549 108.373H27.3079C27.5396 108.33 27.7448 108.201 27.8794 108.012C28.0141 107.824 28.0674 107.591 28.0279 107.365L23.7798 84.1213C23.7073 83.9269 23.5666 83.7638 23.3826 83.6607C23.1985 83.5576 22.9829 83.5212 22.7739 83.5579C22.5649 83.5946 22.3759 83.702 22.2405 83.8613C22.105 84.0205 22.0318 84.2212 22.0337 84.4279L26.2819 107.707C26.3301 107.897 26.4423 108.065 26.6005 108.186C26.7587 108.307 26.9539 108.372 27.1549 108.373Z" fill="url(#paint11_linear_1_2102)"/>
<path d="M51.8793 39.5613H51.9243L92.8581 37.8091C93.0873 37.7957 93.3026 37.6975 93.4599 37.5346C93.6171 37.3717 93.7045 37.1565 93.7041 36.9329C93.6903 36.7098 93.5895 36.5002 93.4222 36.3471C93.2548 36.194 93.0337 36.109 92.8041 36.1094L51.8703 37.8616C51.6316 37.8616 51.4027 37.9539 51.2339 38.1183C51.0651 38.2826 50.9703 38.5054 50.9703 38.7378C50.9703 38.9701 51.0651 39.193 51.2339 39.3573C51.4027 39.5216 51.6316 39.6139 51.8703 39.6139L51.8793 39.5613Z" fill="url(#paint12_linear_1_2102)"/>
<path d="M136.753 30.0286C136.825 30.037 136.897 30.037 136.969 30.0286L176.913 20.5664C177.111 20.4863 177.274 20.3396 177.371 20.1529C177.468 19.9663 177.493 19.7519 177.442 19.5487C177.391 19.3454 177.267 19.1667 177.092 19.0448C176.918 18.9229 176.704 18.866 176.49 18.8842L136.546 28.3464C136.307 28.3732 136.089 28.4911 135.94 28.6743C135.791 28.8575 135.722 29.091 135.749 29.3233C135.777 29.5557 135.898 29.7679 136.086 29.9133C136.274 30.0587 136.514 30.1254 136.753 30.0987V30.0286Z" fill="url(#paint13_linear_1_2102)"/>
<path d="M209.89 95.239H210.007C210.241 95.2064 210.453 95.085 210.596 94.9013C210.739 94.7177 210.802 94.4864 210.772 94.2577L205.848 59.887C205.832 59.772 205.792 59.6612 205.732 59.5611C205.671 59.4609 205.591 59.3734 205.496 59.3034C205.4 59.2335 205.292 59.1824 205.176 59.1533C205.061 59.1242 204.941 59.1174 204.822 59.1335C204.704 59.1497 204.59 59.1883 204.488 59.2472C204.385 59.3061 204.295 59.3841 204.223 59.4769C204.151 59.5696 204.099 59.6753 204.069 59.7877C204.039 59.9002 204.032 60.0173 204.048 60.1323L208.963 94.5031C208.998 94.715 209.111 94.907 209.282 95.0427C209.453 95.1783 209.669 95.2482 209.89 95.239Z" fill="url(#paint14_linear_1_2102)"/>
<path d="M183.159 177.141C183.319 177.141 183.476 177.1 183.613 177.021C183.751 176.943 183.864 176.83 183.943 176.695L200.26 147.405C200.333 147.208 200.331 146.992 200.254 146.796C200.177 146.6 200.031 146.437 199.841 146.338C199.652 146.238 199.432 146.208 199.221 146.253C199.011 146.297 198.824 146.414 198.694 146.582L182.34 175.862C182.27 175.995 182.235 176.142 182.24 176.291C182.244 176.44 182.288 176.586 182.366 176.714C182.445 176.842 182.555 176.949 182.688 177.023C182.82 177.098 182.97 177.139 183.123 177.141H183.159Z" fill="url(#paint15_linear_1_2102)"/>
<path d="M115.377 223.751C115.478 223.753 115.578 223.738 115.674 223.707L144.079 213.991C144.266 213.891 144.41 213.729 144.486 213.535C144.562 213.341 144.564 213.127 144.493 212.931C144.422 212.735 144.281 212.57 144.097 212.466C143.912 212.362 143.695 212.325 143.485 212.362L115.08 222.078C114.897 222.157 114.747 222.294 114.653 222.466C114.559 222.638 114.526 222.835 114.56 223.027C114.594 223.219 114.693 223.394 114.841 223.526C114.989 223.657 115.177 223.736 115.377 223.751Z" fill="url(#paint16_linear_1_2102)"/>
<path d="M108.789 209.628C109.025 209.627 109.251 209.535 109.419 209.374L186.669 134.534C186.834 134.371 186.926 134.15 186.926 133.921C186.926 133.692 186.834 133.471 186.669 133.308C186.501 133.15 186.277 133.062 186.043 133.062C185.81 133.062 185.586 133.15 185.418 133.308L108.168 208.147C108.048 208.269 107.967 208.423 107.934 208.589C107.902 208.755 107.92 208.927 107.985 209.083C108.051 209.24 108.162 209.374 108.304 209.471C108.447 209.568 108.615 209.622 108.789 209.628Z" fill="url(#paint17_linear_1_2102)"/>
<path d="M195.949 106.831C196.085 106.829 196.218 106.798 196.34 106.739C196.461 106.679 196.568 106.594 196.651 106.489C196.79 106.307 196.851 106.078 196.821 105.853C196.791 105.627 196.672 105.422 196.489 105.28L131.227 56.5497C131.137 56.4583 131.028 56.387 130.907 56.3405C130.786 56.2941 130.656 56.2736 130.527 56.2806C130.397 56.2876 130.27 56.3219 130.155 56.3811C130.041 56.4402 129.94 56.5229 129.861 56.6234C129.782 56.7239 129.727 56.8398 129.698 56.9632C129.67 57.0866 129.669 57.2145 129.696 57.3382C129.723 57.4619 129.778 57.5784 129.855 57.6798C129.933 57.7811 130.033 57.8648 130.147 57.9252L195.409 106.647C195.563 106.764 195.753 106.828 195.949 106.831Z" fill="url(#paint18_linear_1_2102)"/>
<path d="M43.3021 108.373C43.435 108.372 43.5661 108.343 43.686 108.287C43.8058 108.231 43.9114 108.15 43.9951 108.049L93.0292 47.7273C93.1375 47.5453 93.1749 47.3315 93.1346 47.1249C93.0943 46.9183 92.9791 46.7327 92.8098 46.6019C92.6406 46.4712 92.4287 46.4041 92.2129 46.4129C91.9971 46.4216 91.7917 46.5057 91.6342 46.6496L42.6091 106.971C42.4647 107.152 42.3989 107.381 42.4258 107.609C42.4527 107.837 42.5702 108.045 42.7531 108.189C42.9102 108.308 43.1032 108.373 43.3021 108.373Z" fill="url(#paint19_linear_1_2102)"/>
<g opacity="0.5">
<path opacity="0.5" d="M70.8432 214.042C70.9909 214.041 71.1362 214.005 71.2662 213.936C71.4696 213.825 71.6208 213.642 71.6879 213.425C71.7551 213.207 71.733 212.973 71.6262 212.771L38.1448 152.493C38.1033 152.372 38.0348 152.26 37.9444 152.167C37.8539 152.074 37.7436 152.002 37.6212 151.955C37.4988 151.908 37.3673 151.887 37.236 151.895C37.1046 151.903 36.9767 151.939 36.861 152C36.7454 152.061 36.645 152.146 36.5668 152.249C36.4886 152.352 36.4346 152.471 36.4085 152.596C36.3825 152.722 36.385 152.851 36.416 152.976C36.4469 153.1 36.5055 153.217 36.5877 153.317L70.0602 213.586C70.1371 213.723 70.2503 213.837 70.388 213.917C70.5257 213.998 70.6828 214.04 70.8432 214.042Z" fill="white"/>
<path opacity="0.5" d="M64.8488 226.571C65.045 226.561 65.2326 226.488 65.3826 226.365C65.5327 226.241 65.6372 226.073 65.68 225.887C65.7228 225.7 65.7018 225.505 65.6199 225.331C65.5381 225.157 65.4 225.014 65.2268 224.924L41.2588 214.042C41.1508 213.97 41.0282 213.922 40.8993 213.902C40.7704 213.881 40.6384 213.887 40.5124 213.921C40.3865 213.955 40.2696 214.015 40.1699 214.097C40.0702 214.18 39.9902 214.282 39.9352 214.397C39.8802 214.513 39.8517 214.638 39.8517 214.765C39.8516 214.893 39.88 215.018 39.9349 215.134C39.9897 215.249 40.0698 215.352 40.1694 215.434C40.269 215.516 40.3858 215.576 40.5118 215.61L64.4798 226.492C64.5957 226.543 64.7214 226.57 64.8488 226.571Z" fill="white"/>
<path opacity="0.5" d="M18.029 175.326C18.2572 175.326 18.477 175.243 18.6441 175.091C18.8112 174.94 18.9131 174.733 18.929 174.511L20.0181 156.91C20.0188 156.689 19.9339 156.476 19.7804 156.314C19.6269 156.151 19.4161 156.051 19.19 156.033C18.9556 156.021 18.7257 156.099 18.5491 156.249C18.3726 156.4 18.2634 156.612 18.245 156.839L17.1559 174.441C17.1435 174.669 17.2231 174.893 17.3778 175.065C17.5325 175.237 17.75 175.343 17.984 175.361L18.029 175.326Z" fill="white"/>
<path opacity="0.5" d="M27.1552 108.372H27.3082C27.5399 108.329 27.7451 108.2 27.8797 108.011C28.0144 107.823 28.0677 107.59 28.0282 107.364L23.7801 84.1203C23.7076 83.926 23.5669 83.7628 23.3829 83.6597C23.1988 83.5566 22.9832 83.5202 22.7742 83.5569C22.5652 83.5936 22.3762 83.7011 22.2408 83.8603C22.1053 84.0195 22.0321 84.2202 22.034 84.4269L26.2822 107.706C26.3304 107.896 26.4426 108.065 26.6008 108.185C26.759 108.306 26.9542 108.372 27.1552 108.372Z" fill="white"/>
<path opacity="0.5" d="M51.8793 39.5594H51.9243L92.8581 37.8071C93.0873 37.7937 93.3026 37.6955 93.4599 37.5326C93.6171 37.3698 93.7045 37.1545 93.7041 36.931C93.6903 36.7079 93.5895 36.4983 93.4222 36.3452C93.2548 36.1921 93.0337 36.107 92.8041 36.1074L51.8703 37.8597C51.6316 37.8597 51.4027 37.952 51.2339 38.1163C51.0651 38.2806 50.9703 38.5035 50.9703 38.7358C50.9703 38.9682 51.0651 39.191 51.2339 39.3553C51.4027 39.5197 51.6316 39.612 51.8703 39.612L51.8793 39.5594Z" fill="white"/>
<path opacity="0.5" d="M136.753 30.0276C136.825 30.0361 136.897 30.0361 136.969 30.0276L176.913 20.5654C177.111 20.4853 177.274 20.3386 177.371 20.152C177.468 19.9653 177.494 19.7509 177.442 19.5477C177.391 19.3444 177.267 19.1657 177.092 19.0438C176.918 18.922 176.704 18.865 176.49 18.8832L136.546 28.3455C136.307 28.3722 136.089 28.4901 135.94 28.6733C135.791 28.8565 135.722 29.09 135.75 29.3223C135.777 29.5547 135.898 29.7669 136.086 29.9124C136.275 30.0578 136.514 30.1244 136.753 30.0977V30.0276Z" fill="white"/>
<path opacity="0.5" d="M209.89 95.238H210.007C210.242 95.2054 210.453 95.0841 210.597 94.9004C210.74 94.7167 210.803 94.4854 210.772 94.2568L205.849 59.886C205.832 59.771 205.793 59.6602 205.732 59.5601C205.672 59.46 205.591 59.3724 205.496 59.3024C205.401 59.2325 205.292 59.1815 205.177 59.1523C205.061 59.1232 204.941 59.1165 204.823 59.1326C204.705 59.1487 204.591 59.1873 204.488 59.2462C204.385 59.3051 204.295 59.3832 204.223 59.4759C204.151 59.5687 204.099 59.6743 204.069 59.7867C204.039 59.8992 204.032 60.0163 204.049 60.1314L208.963 94.5021C208.998 94.714 209.112 94.906 209.283 95.0417C209.454 95.1773 209.67 95.2472 209.89 95.238Z" fill="white"/>
<path opacity="0.5" d="M183.159 177.139C183.318 177.138 183.475 177.097 183.613 177.018C183.75 176.94 183.864 176.827 183.942 176.692L200.26 147.403C200.333 147.205 200.331 146.989 200.254 146.793C200.177 146.597 200.03 146.434 199.841 146.335C199.651 146.235 199.431 146.205 199.221 146.25C199.01 146.295 198.823 146.411 198.694 146.579L182.34 175.859C182.269 175.992 182.235 176.139 182.239 176.288C182.244 176.437 182.287 176.583 182.366 176.711C182.444 176.839 182.555 176.946 182.687 177.02C182.82 177.095 182.97 177.136 183.123 177.139H183.159Z" fill="white"/>
<path opacity="0.5" d="M115.377 223.75C115.478 223.752 115.578 223.737 115.674 223.707L144.079 213.99C144.266 213.89 144.41 213.728 144.486 213.534C144.562 213.34 144.564 213.126 144.493 212.93C144.422 212.734 144.281 212.569 144.097 212.465C143.912 212.361 143.695 212.324 143.485 212.361L115.08 222.077C114.897 222.156 114.747 222.293 114.653 222.465C114.559 222.637 114.526 222.834 114.56 223.026C114.594 223.218 114.693 223.393 114.841 223.525C114.989 223.656 115.177 223.735 115.377 223.75Z" fill="white"/>
<path opacity="0.5" d="M108.789 209.627C109.025 209.626 109.251 209.535 109.419 209.373L186.669 134.533C186.834 134.37 186.927 134.149 186.927 133.92C186.927 133.691 186.834 133.471 186.669 133.307C186.502 133.149 186.277 133.061 186.044 133.061C185.811 133.061 185.586 133.149 185.418 133.307L108.168 208.146C108.048 208.268 107.967 208.422 107.935 208.588C107.902 208.754 107.92 208.926 107.986 209.082C108.051 209.239 108.162 209.373 108.305 209.47C108.447 209.567 108.616 209.621 108.789 209.627Z" fill="white"/>
<path opacity="0.5" d="M195.949 106.83C196.084 106.828 196.218 106.797 196.34 106.738C196.461 106.678 196.568 106.593 196.651 106.488C196.79 106.306 196.851 106.078 196.821 105.852C196.791 105.626 196.672 105.421 196.489 105.279L131.227 56.5487C131.137 56.4573 131.028 56.386 130.907 56.3395C130.786 56.2931 130.656 56.2727 130.527 56.2797C130.397 56.2867 130.27 56.3209 130.155 56.3801C130.041 56.4393 129.94 56.5219 129.861 56.6224C129.782 56.7229 129.727 56.8388 129.698 56.9622C129.67 57.0856 129.669 57.2136 129.696 57.3373C129.723 57.4609 129.778 57.5775 129.855 57.6788C129.933 57.7801 130.033 57.8639 130.147 57.9242L195.408 106.646C195.563 106.763 195.753 106.828 195.949 106.83Z" fill="white"/>
<path opacity="0.5" d="M43.3021 108.371C43.4351 108.37 43.5662 108.341 43.686 108.285C43.8058 108.229 43.9114 108.148 43.9952 108.047L93.0293 47.7253C93.1375 47.5433 93.1749 47.3295 93.1347 47.1229C93.0944 46.9163 92.9791 46.7307 92.8099 46.6C92.6407 46.4693 92.4288 46.4022 92.213 46.4109C91.9971 46.4197 91.7917 46.5037 91.6343 46.6477L42.6091 106.969C42.4647 107.15 42.399 107.379 42.4259 107.607C42.4528 107.835 42.5703 108.043 42.7531 108.187C42.9102 108.306 43.1033 108.371 43.3021 108.371Z" fill="white"/>
</g>
<defs>
<linearGradient id="paint0_linear_1_2102" x1="204.53" y1="11.0176" x2="204.53" y2="52.931" gradientUnits="userSpaceOnUse">
<stop stop-color="#7A4BFF"/>
<stop offset="0.953125" stop-color="#B4AEFF"/>
</linearGradient>
<linearGradient id="paint1_linear_1_2102" x1="90.3337" y1="218.688" x2="90.3337" y2="260.602" gradientUnits="userSpaceOnUse">
<stop stop-color="#7A4BFF"/>
<stop offset="0.953125" stop-color="#B4AEFF"/>
</linearGradient>
<linearGradient id="paint2_linear_1_2102" x1="24.0321" y1="187.066" x2="24.0321" y2="224.005" gradientUnits="userSpaceOnUse">
<stop stop-color="#7A4BFF"/>
<stop offset="0.953125" stop-color="#B4AEFF"/>
</linearGradient>
<linearGradient id="paint3_linear_1_2102" x1="116.232" y1="27.542" x2="116.232" y2="60.0887" gradientUnits="userSpaceOnUse">
<stop stop-color="#7A4BFF"/>
<stop offset="0.953125" stop-color="#B4AEFF"/>
</linearGradient>
<linearGradient id="paint4_linear_1_2102" x1="30.4088" y1="117.672" x2="30.4088" y2="150.217" gradientUnits="userSpaceOnUse">
<stop stop-color="#7A4BFF"/>
<stop offset="0.953125" stop-color="#B4AEFF"/>
</linearGradient>
<linearGradient id="paint5_linear_1_2102" x1="166.347" y1="184.178" x2="166.347" y2="216.716" gradientUnits="userSpaceOnUse">
<stop stop-color="#7A4BFF"/>
<stop offset="0.953125" stop-color="#B4AEFF"/>
</linearGradient>
<linearGradient id="paint6_linear_1_2102" x1="210.161" y1="109.06" x2="210.161" y2="141.605" gradientUnits="userSpaceOnUse">
<stop stop-color="#7A4BFF"/>
<stop offset="0.953125" stop-color="#B4AEFF"/>
</linearGradient>
<linearGradient id="paint7_linear_1_2102" x1="26.6556" y1="38.7031" x2="26.6556" y2="78.3563" gradientUnits="userSpaceOnUse">
<stop stop-color="#7A4BFF"/>
<stop offset="0.953125" stop-color="#B4AEFF"/>
</linearGradient>
<linearGradient id="paint8_linear_1_2102" x1="54.0584" y1="151.896" x2="54.0584" y2="214.044" gradientUnits="userSpaceOnUse">
<stop stop-color="#7A4BFF"/>
<stop offset="0.953125" stop-color="#B4AEFF"/>
</linearGradient>
<linearGradient id="paint9_linear_1_2102" x1="52.7767" y1="213.891" x2="52.7767" y2="226.572" gradientUnits="userSpaceOnUse">
<stop stop-color="#7A4BFF"/>
<stop offset="0.953125" stop-color="#B4AEFF"/>
</linearGradient>
<linearGradient id="paint10_linear_1_2102" x1="18.5864" y1="156.033" x2="18.5864" y2="175.362" gradientUnits="userSpaceOnUse">
<stop stop-color="#7A4BFF"/>
<stop offset="0.953125" stop-color="#B4AEFF"/>
</linearGradient>
<linearGradient id="paint11_linear_1_2102" x1="25.0371" y1="83.5439" x2="25.0371" y2="108.373" gradientUnits="userSpaceOnUse">
<stop stop-color="#7A4BFF"/>
<stop offset="0.953125" stop-color="#B4AEFF"/>
</linearGradient>
<linearGradient id="paint12_linear_1_2102" x1="72.3372" y1="36.1094" x2="72.3372" y2="39.6139" gradientUnits="userSpaceOnUse">
<stop stop-color="#7A4BFF"/>
<stop offset="0.953125" stop-color="#B4AEFF"/>
</linearGradient>
<linearGradient id="paint13_linear_1_2102" x1="156.606" y1="18.8809" x2="156.606" y2="30.1045" gradientUnits="userSpaceOnUse">
<stop stop-color="#7A4BFF"/>
<stop offset="0.953125" stop-color="#B4AEFF"/>
</linearGradient>
<linearGradient id="paint14_linear_1_2102" x1="207.409" y1="59.125" x2="207.409" y2="95.2398" gradientUnits="userSpaceOnUse">
<stop stop-color="#7A4BFF"/>
<stop offset="0.953125" stop-color="#B4AEFF"/>
</linearGradient>
<linearGradient id="paint15_linear_1_2102" x1="191.276" y1="146.232" x2="191.276" y2="177.141" gradientUnits="userSpaceOnUse">
<stop stop-color="#7A4BFF"/>
<stop offset="0.953125" stop-color="#B4AEFF"/>
</linearGradient>
<linearGradient id="paint16_linear_1_2102" x1="129.546" y1="212.348" x2="129.546" y2="223.751" gradientUnits="userSpaceOnUse">
<stop stop-color="#7A4BFF"/>
<stop offset="0.953125" stop-color="#B4AEFF"/>
</linearGradient>
<linearGradient id="paint17_linear_1_2102" x1="147.422" y1="133.062" x2="147.422" y2="209.628" gradientUnits="userSpaceOnUse">
<stop stop-color="#7A4BFF"/>
<stop offset="0.953125" stop-color="#B4AEFF"/>
</linearGradient>
<linearGradient id="paint18_linear_1_2102" x1="163.253" y1="56.2793" x2="163.253" y2="106.831" gradientUnits="userSpaceOnUse">
<stop stop-color="#7A4BFF"/>
<stop offset="0.953125" stop-color="#B4AEFF"/>
</linearGradient>
<linearGradient id="paint19_linear_1_2102" x1="67.7852" y1="46.4121" x2="67.7852" y2="108.373" gradientUnits="userSpaceOnUse">
<stop stop-color="#7A4BFF"/>
<stop offset="0.953125" stop-color="#B4AEFF"/>
</linearGradient>
</defs>
</svg>
