<svg width="28" height="28" viewBox="0 0 28 28" fill="none" xmlns="http://www.w3.org/2000/svg">
<path opacity="0.8" d="M14.031 9.33135C11.4667 9.33135 9.37398 11.4293 9.37398 14C9.37398 16.5707 11.4667 18.6687 14.031 18.6687C16.5953 18.6687 18.6879 16.5707 18.6879 14C18.6879 11.4293 16.5953 9.33135 14.031 9.33135ZM27.9984 14C27.9984 12.0667 28.0159 10.1509 27.9076 8.2211C27.7993 5.97958 27.2892 3.99024 25.6542 2.35113C24.0157 0.708519 22.0348 0.200677 19.7989 0.0921032C17.8704 -0.0164701 15.9594 0.00104176 14.0345 0.00104176C12.106 0.00104176 10.195 -0.0164701 8.27 0.0921032C6.03409 0.200677 4.04972 0.712022 2.41471 2.35113C0.776206 3.99374 0.269633 5.97958 0.161331 8.2211C0.0530291 10.1544 0.0704972 12.0702 0.0704972 14C0.0704972 15.9298 0.0530291 17.8491 0.161331 19.7789C0.269633 22.0204 0.7797 24.0098 2.41471 25.6489C4.05321 27.2915 6.03409 27.7993 8.27 27.9079C10.1985 28.0165 12.1095 27.999 14.0345 27.999C15.9629 27.999 17.8739 28.0165 19.7989 27.9079C22.0348 27.7993 24.0192 27.288 25.6542 25.6489C27.2927 24.0063 27.7993 22.0204 27.9076 19.7789C28.0194 17.8491 27.9984 15.9333 27.9984 14ZM14.031 21.1834C10.0657 21.1834 6.86557 17.9752 6.86557 14C6.86557 10.0248 10.0657 6.81665 14.031 6.81665C17.9962 6.81665 21.1964 10.0248 21.1964 14C21.1964 17.9752 17.9962 21.1834 14.031 21.1834ZM21.4898 8.20008C20.564 8.20008 19.8164 7.45057 19.8164 6.52245C19.8164 5.59432 20.564 4.84481 21.4898 4.84481C22.4156 4.84481 23.1633 5.59432 23.1633 6.52245C23.1635 6.74284 23.1204 6.96111 23.0364 7.16478C22.9524 7.36844 22.8292 7.55349 22.6737 7.70933C22.5183 7.86517 22.3337 7.98873 22.1305 8.07294C21.9274 8.15715 21.7097 8.20036 21.4898 8.20008Z" fill="white"/>
</svg>
