<svg width="344" height="344" viewBox="0 0 344 344" fill="none" xmlns="http://www.w3.org/2000/svg">
<g clip-path="url(#clip0_1_2270)">
<path d="M158.558 168.804C158.558 168.776 158.558 168.748 158.558 168.719C158.495 166.645 157.708 164.871 156.19 163.347C154.609 161.787 152.691 161.007 150.471 161.007H136.794L139.059 165.026H150.469C150.996 165.02 151.52 165.121 152.006 165.322C152.493 165.524 152.932 165.821 153.298 166.196C153.419 166.313 153.534 166.436 153.641 166.566C154.231 167.288 154.542 168.194 154.516 169.122C154.491 170.05 154.131 170.938 153.502 171.629C153.438 171.698 153.371 171.766 153.3 171.834C152.934 172.209 152.495 172.506 152.008 172.708C151.522 172.909 150.998 173.01 150.471 173.004H146.964L143.578 172.975L150.636 185.005H155.291L150.664 177.021C152.801 176.975 154.651 176.199 156.188 174.685C157.706 173.161 158.493 171.387 158.556 169.313C158.556 169.284 158.556 169.255 158.556 169.228C158.556 169.167 158.556 169.107 158.556 169.043V168.983C158.558 168.925 158.558 168.865 158.558 168.804ZM191.327 165.296C190.976 164.465 190.459 163.712 189.807 163.081C189.168 162.419 188.403 161.94 187.526 161.55C186.658 161.192 185.726 161.008 184.785 161.009H168.962L171.316 165.029H184.788C185.184 165.023 185.578 165.095 185.945 165.241C186.329 165.378 186.674 165.604 186.951 165.9C187.5 166.467 187.814 167.216 187.831 168C187.83 168.402 187.747 168.8 187.586 169.17C187.44 169.528 187.224 169.854 186.951 170.13C186.373 170.691 185.599 171.013 184.788 171.03H168.972L171.298 175.017H184.788C185.205 175.023 185.618 175.104 186.005 175.258C186.454 175.457 186.848 175.76 187.153 176.141C187.458 176.522 187.666 176.969 187.759 177.446C187.851 177.923 187.826 178.414 187.685 178.88C187.545 179.345 187.292 179.769 186.95 180.118C186.673 180.414 186.328 180.641 185.944 180.78C185.576 180.924 185.183 180.995 184.787 180.99H168.972L171.298 185.01H184.788C185.729 185.016 186.662 184.831 187.528 184.468C188.409 184.078 189.171 183.599 189.81 182.937C190.463 182.307 190.98 181.554 191.33 180.722C191.699 179.868 191.886 178.948 191.879 178.02C191.879 176.04 191.179 174.361 189.749 173.01C191.179 171.626 191.879 169.95 191.879 168.002C191.886 167.072 191.698 166.15 191.327 165.294V165.296ZM120.171 161.007C116.794 161.007 113.934 162.207 111.592 164.546C111.431 164.704 111.278 164.864 111.128 165.026H119.856V165.033C119.961 165.033 120.066 165.026 120.171 165.026C122.392 165.026 124.31 165.806 125.891 167.366C127.472 168.926 128.264 170.815 128.264 173.006C128.264 175.196 127.504 177.085 125.891 178.675C124.31 180.235 122.392 180.983 120.171 180.983C117.951 180.983 116.003 180.234 114.421 178.675C112.839 177.117 112.08 175.195 112.08 173.006C112.077 172.339 112.153 171.675 112.307 171.026H108.159C108.053 171.681 108 172.343 108 173.006C108 176.335 109.217 179.125 111.591 181.465C113.964 183.805 116.793 185.005 120.17 185.005C123.548 185.005 126.377 183.805 128.75 181.465C131.154 179.157 132.371 176.335 132.371 173.006C132.371 169.706 131.154 166.886 128.75 164.546C126.377 162.207 123.548 161.007 120.171 161.007ZM224.831 185.007H228.908V171.026H224.831V185.007ZM203.952 185.007H207.992V171.026H203.948L203.952 185.007ZM216.53 161.007L218.853 165.026H234.675L237 161.007H216.53ZM203.948 165.026H207.992V161.007H203.948V165.026Z" fill="url(#paint0_linear_1_2270)"/>
</g>
<path d="M342 172C342 136.104 330.638 101.129 309.541 72.087C288.444 43.0449 258.695 21.4262 224.558 10.3284C190.42 -0.769267 153.646 -0.776312 119.504 10.3083C85.3627 21.3929 55.6059 43.0003 34.4979 72.0343C13.3898 101.068 2.01389 136.039 2.00013 171.935C1.98638 207.831 13.3355 242.81 34.4213 271.86C55.5071 300.91 85.2473 322.541 119.381 333.651C153.514 344.762 190.288 344.783 224.434 333.712L205.558 275.498C183.705 282.584 160.169 282.57 138.323 275.459C116.477 268.348 97.4429 254.505 83.9476 235.912C70.4524 217.319 63.1888 194.932 63.1976 171.958C63.2064 148.984 70.4872 126.603 83.9967 108.021C97.5061 89.4383 116.551 75.6093 138.402 68.5149C160.253 61.4206 183.789 61.4251 205.638 68.5278C227.486 75.6305 246.526 89.4669 260.028 108.054C273.53 126.642 280.803 149.026 280.803 172H342Z" fill="#867EE8"/>
<path d="M309.251 272.31C330.485 243.257 341.951 208.215 342 172.23L280.803 172.147C280.772 195.178 273.433 217.606 259.843 236.2L309.251 272.31Z" fill="#29D9D0"/>
<path d="M253.346 321.275C275.255 309.336 294.268 292.72 309.034 272.607L259.704 236.39C250.253 249.263 238.085 259.897 224.063 267.538L253.346 321.275Z" fill="#00D98D"/>
<path d="M224.329 333.745C234.436 330.475 244.215 326.265 253.537 321.17L224.185 267.471C218.219 270.732 211.96 273.426 205.491 275.519L224.329 333.745Z" fill="#296FD9"/>
<path d="M342 172C342 136.104 330.638 101.129 309.541 72.087C288.444 43.0449 258.695 21.4262 224.558 10.3284C190.42 -0.769267 153.646 -0.776312 119.504 10.3083C85.3627 21.3929 55.6059 43.0003 34.4979 72.0343C13.3898 101.068 2.01389 136.039 2.00013 171.935C1.98638 207.831 13.3355 242.81 34.4213 271.86C55.5071 300.91 85.2473 322.541 119.381 333.651C153.514 344.762 190.288 344.783 224.434 333.712L205.558 275.498C183.705 282.584 160.169 282.57 138.323 275.459C116.477 268.348 97.4429 254.505 83.9476 235.912C70.4524 217.319 63.1888 194.932 63.1976 171.958C63.2064 148.984 70.4872 126.603 83.9967 108.021C97.5061 89.4383 116.551 75.6093 138.402 68.5149C160.253 61.4206 183.789 61.4251 205.638 68.5278C227.486 75.6305 246.526 89.4669 260.028 108.054C273.53 126.642 280.803 149.026 280.803 172H342Z" stroke="#06111C" stroke-width="4"/>
<path d="M309.251 272.31C330.485 243.257 341.951 208.215 342 172.23L280.803 172.147C280.772 195.178 273.433 217.606 259.843 236.2L309.251 272.31Z" stroke="#06111C" stroke-width="4"/>
<path d="M253.346 321.275C275.255 309.336 294.268 292.72 309.034 272.607L259.704 236.39C250.253 249.263 238.085 259.897 224.063 267.538L253.346 321.275Z" stroke="#06111C" stroke-width="4"/>
<path d="M224.329 333.745C234.436 330.475 244.215 326.265 253.537 321.17L224.185 267.471C218.219 270.732 211.96 273.426 205.491 275.519L224.329 333.745Z" stroke="#06111C" stroke-width="4"/>
<defs>
<linearGradient id="paint0_linear_1_2270" x1="108" y1="173.005" x2="237" y2="173.005" gradientUnits="userSpaceOnUse">
<stop stop-color="#FF59B7"/>
<stop offset="0.51" stop-color="#8E72FF"/>
<stop offset="1" stop-color="#4BAFE5"/>
</linearGradient>
<clipPath id="clip0_1_2270">
<rect width="129" height="24" fill="white" transform="translate(108 161.005)"/>
</clipPath>
</defs>
</svg>
