<svg width="28" height="28" viewBox="0 0 28 28" fill="none" xmlns="http://www.w3.org/2000/svg">
<path opacity="0.8" fill-rule="evenodd" clip-rule="evenodd" d="M28 14C28 21.7315 21.7315 28 14 28C6.26847 28 -3.05176e-05 21.7315 -3.05176e-05 14C-3.05176e-05 6.2685 6.26847 0 14 0C21.7315 0 28 6.2685 28 14ZM14.5016 10.3355C13.1401 10.9013 10.4183 12.0738 6.3373 13.8518C5.67464 14.1155 5.32697 14.3733 5.29547 14.6253C5.2418 15.0523 5.77614 15.2203 6.5018 15.4478C6.60097 15.4793 6.70364 15.5108 6.80864 15.5458C7.5238 15.778 8.48514 16.0498 8.98447 16.0603C9.4383 16.0697 9.94464 15.883 10.5035 15.5003C14.3161 12.9255 16.2843 11.6247 16.408 11.5967C16.4955 11.5768 16.6168 11.5512 16.6985 11.6247C16.7801 11.697 16.772 11.8347 16.7638 11.872C16.7101 12.0972 14.6171 14.0443 13.5321 15.0523C13.1938 15.3662 12.9546 15.589 12.9056 15.6403C12.796 15.7535 12.684 15.862 12.5766 15.9658C11.9116 16.6052 11.4146 17.0858 12.6046 17.8698C13.1763 18.2467 13.6336 18.5582 14.0898 18.8685C14.588 19.208 15.085 19.5463 15.729 19.9687C15.8923 20.076 16.0486 20.1868 16.2015 20.2953C16.7813 20.7095 17.3028 21.0805 17.9468 21.0222C18.3201 20.9872 18.7075 20.636 18.9035 19.5872C19.3666 17.1068 20.279 11.7355 20.4901 9.52117C20.503 9.33732 20.4952 9.1526 20.4668 8.9705C20.4498 8.82342 20.3782 8.68809 20.2661 8.59133C20.0993 8.45483 19.8403 8.42567 19.7236 8.428C19.1975 8.43733 18.3901 8.7185 14.5016 10.3355Z" fill="white"/>
</svg>
