<svg width="28" height="28" viewBox="0 0 28 28" fill="none" xmlns="http://www.w3.org/2000/svg">
<path opacity="0.8" d="M14 0C6.26873 0 -2.28882e-05 6.26875 -2.28882e-05 14C-2.28882e-05 21.7312 6.26873 28 14 28C21.7312 28 28 21.7312 28 14C28 6.26875 21.7312 0 14 0ZM20.7281 10.5531C20.7375 10.7 20.7375 10.8531 20.7375 11.0031C20.7375 15.5906 17.2437 20.875 10.8594 20.875C8.8906 20.875 7.0656 20.3031 5.5281 19.3188C5.80935 19.35 6.0781 19.3625 6.3656 19.3625C7.9906 19.3625 9.48435 18.8125 10.675 17.8813C9.14998 17.85 7.86873 16.85 7.43123 15.475C7.9656 15.5531 8.44685 15.5531 8.99685 15.4125C8.21162 15.253 7.50584 14.8265 6.9994 14.2056C6.49297 13.5846 6.21712 12.8075 6.21873 12.0063V11.9625C6.6781 12.2219 7.21873 12.3813 7.78435 12.4031C7.30886 12.0862 6.91891 11.6569 6.64907 11.1532C6.37924 10.6495 6.23786 10.087 6.23748 9.51562C6.23748 8.86875 6.40623 8.27812 6.70935 7.76562C7.58092 8.83855 8.66851 9.71607 9.90143 10.3411C11.1343 10.9662 12.485 11.3249 13.8656 11.3937C13.375 9.03437 15.1375 7.125 17.2562 7.125C18.2562 7.125 19.1562 7.54375 19.7906 8.21875C20.575 8.07187 21.325 7.77812 21.9937 7.38437C21.7344 8.1875 21.1906 8.86562 20.4687 9.29375C21.1687 9.21875 21.8437 9.025 22.4687 8.75313C21.9969 9.44687 21.4062 10.0625 20.7281 10.5531Z" fill="white"/>
</svg>
